<svg width="26" height="21" viewBox="0 0 26 21" fill="none" xmlns="http://www.w3.org/2000/svg">
<path d="M25.0714 0H0.928571C0.414955 0 0 0.426562 0 0.954545V5.72727H26V0.954545C26 0.426562 25.585 0 25.0714 0ZM0 20.0455C0 20.5734 0.414955 21 0.928571 21H25.0714C25.585 21 26 20.5734 26 20.0455V8.35227H0V20.0455ZM16.8013 14.5568C16.8013 14.4256 16.9058 14.3182 17.0335 14.3182H21.8214C21.9491 14.3182 22.0536 14.4256 22.0536 14.5568V16.7045C22.0536 16.8358 21.9491 16.9432 21.8214 16.9432H17.0335C16.9058 16.9432 16.8013 16.8358 16.8013 16.7045V14.5568Z" fill="#70708C"/>
</svg>
