<svg width="26" height="17" viewBox="0 0 26 17" fill="none" xmlns="http://www.w3.org/2000/svg">
<path d="M13 11.375C13.862 11.375 14.6886 11.0326 15.2981 10.4231C15.9076 9.8136 16.25 8.98695 16.25 8.125C16.25 7.26305 15.9076 6.4364 15.2981 5.8269C14.6886 5.21741 13.862 4.875 13 4.875C12.138 4.875 11.3114 5.21741 10.7019 5.8269C10.0924 6.4364 9.75 7.26305 9.75 8.125C9.75 8.98695 10.0924 9.8136 10.7019 10.4231C11.3114 11.0326 12.138 11.375 13 11.375V11.375Z" fill="#70708C"/>
<path d="M0 1.625C0 1.19402 0.171205 0.780698 0.475952 0.475951C0.780698 0.171205 1.19402 0 1.625 0H24.375C24.806 0 25.2193 0.171205 25.524 0.475951C25.8288 0.780698 26 1.19402 26 1.625V14.625C26 15.056 25.8288 15.4693 25.524 15.774C25.2193 16.0788 24.806 16.25 24.375 16.25H1.625C1.19402 16.25 0.780698 16.0788 0.475952 15.774C0.171205 15.4693 0 15.056 0 14.625V1.625ZM4.875 1.625C4.875 2.48695 4.53259 3.3136 3.9231 3.9231C3.3136 4.53259 2.48695 4.875 1.625 4.875V11.375C2.48695 11.375 3.3136 11.7174 3.9231 12.3269C4.53259 12.9364 4.875 13.763 4.875 14.625H21.125C21.125 13.763 21.4674 12.9364 22.0769 12.3269C22.6864 11.7174 23.513 11.375 24.375 11.375V4.875C23.513 4.875 22.6864 4.53259 22.0769 3.9231C21.4674 3.3136 21.125 2.48695 21.125 1.625H4.875Z" fill="#70708C"/>
</svg>
