<svg width="196" height="4" viewBox="0 0 196 4" fill="none" xmlns="http://www.w3.org/2000/svg">
<circle cx="2" cy="2" r="2" fill="#D9D9D9"/>
<circle cx="10" cy="2" r="2" fill="#D9D9D9"/>
<circle cx="18" cy="2" r="2" fill="#D9D9D9"/>
<circle cx="26" cy="2" r="2" fill="#D9D9D9"/>
<circle cx="34" cy="2" r="2" fill="#D9D9D9"/>
<circle cx="42" cy="2" r="2" fill="#D9D9D9"/>
<circle cx="50" cy="2" r="2" fill="#D9D9D9"/>
<circle cx="58" cy="2" r="2" fill="#D9D9D9"/>
<circle cx="66" cy="2" r="2" fill="#D9D9D9"/>
<circle cx="74" cy="2" r="2" fill="#D9D9D9"/>
<circle cx="82" cy="2" r="2" fill="#D9D9D9"/>
<circle cx="90" cy="2" r="2" fill="#D9D9D9"/>
<circle cx="98" cy="2" r="2" fill="#D9D9D9"/>
<circle cx="106" cy="2" r="2" fill="#D9D9D9"/>
<circle cx="114" cy="2" r="2" fill="#D9D9D9"/>
<circle cx="122" cy="2" r="2" fill="#D9D9D9"/>
<circle cx="130" cy="2" r="2" fill="#D9D9D9"/>
<circle cx="138" cy="2" r="2" fill="#D9D9D9"/>
<circle cx="146" cy="2" r="2" fill="#D9D9D9"/>
<circle cx="154" cy="2" r="2" fill="#D9D9D9"/>
<circle cx="162" cy="2" r="2" fill="#D9D9D9"/>
<circle cx="170" cy="2" r="2" fill="#D9D9D9"/>
<circle cx="178" cy="2" r="2" fill="#D9D9D9"/>
<circle cx="186" cy="2" r="2" fill="#D9D9D9"/>
<circle cx="194" cy="2" r="2" fill="#D9D9D9"/>
</svg>
