<svg width="45" height="28" viewBox="0 0 45 28" fill="none" xmlns="http://www.w3.org/2000/svg">
<path d="M22.4759 21L28 15.476L33.5241 21L35 19.5241L29.476 14L35 8.47589L33.5241 7L28 12.524L22.4759 7L21 8.47589L26.524 14L21 19.5241L22.4759 21Z" fill="#70708C"/>
<path d="M42.75 0H16.7479C16.4423 0.000394329 16.14 0.0490131 15.8593 0.142913C15.5786 0.236813 15.3253 0.374042 15.1147 0.546291L0 12.9517V15.0483L15.1147 27.4537C15.3253 27.626 15.5786 27.7632 15.8593 27.8571C16.14 27.951 16.4423 27.9996 16.7479 28H42.75C43.3465 27.9995 43.9184 27.8149 44.3402 27.4868C44.762 27.1588 44.9993 26.714 45 26.25V1.75C44.9993 1.28604 44.762 0.841231 44.3402 0.51316C43.9184 0.185088 43.3465 0.000540345 42.75 0ZM42 25.6667H17.0704L3 14.1183V13.8817L17.0704 2.33333H42V25.6667Z" fill="#70708C"/>
</svg>
