<svg width="24" height="24" viewBox="0 0 24 24" fill="none" xmlns="http://www.w3.org/2000/svg">
<path d="M11 19V20C11 20.2652 10.8946 20.5196 10.7071 20.7071C10.5196 20.8946 10.2652 21 10 21H8V22C8 22.5304 7.78929 23.0391 7.41421 23.4142C7.03914 23.7893 6.53043 24 6 24H2C1.46957 24 0.960859 23.7893 0.585786 23.4142C0.210714 23.0391 0 22.5304 0 22V19.414C0.000113275 18.8836 0.210901 18.375 0.586 18L8.324 10.261C7.84922 8.64959 7.89375 6.9296 8.45129 5.34492C9.00882 3.76023 10.0511 2.39127 11.4302 1.43213C12.8094 0.472985 14.4555 -0.0276589 16.1352 0.00117945C17.8148 0.0300178 19.4428 0.586875 20.7882 1.5928C22.1337 2.59872 23.1283 4.00265 23.6311 5.60554C24.1339 7.20843 24.1194 8.92893 23.5895 10.5231C23.0597 12.1173 22.0415 13.5042 20.6793 14.4872C19.317 15.4703 17.6799 15.9995 16 16H14V18C14 18.2652 13.8946 18.5196 13.7071 18.7071C13.5196 18.8946 13.2652 19 13 19H11ZM18 8C18.5304 8 19.0391 7.78929 19.4142 7.41421C19.7893 7.03914 20 6.53043 20 6C20 5.46957 19.7893 4.96086 19.4142 4.58579C19.0391 4.21071 18.5304 4 18 4C17.4696 4 16.9609 4.21071 16.5858 4.58579C16.2107 4.96086 16 5.46957 16 6C16 6.53043 16.2107 7.03914 16.5858 7.41421C16.9609 7.78929 17.4696 8 18 8Z" fill="#70708C"/>
</svg>
