<svg width="28" height="28" viewBox="0 0 28 28" fill="none" xmlns="http://www.w3.org/2000/svg">
<path d="M14 28L19.6 22.4H8.4M23.8 7H21V4.2H23.8M23.8 11.2H21V8.4H23.8M19.6 7H16.8V4.2H19.6M19.6 11.2H16.8V8.4H19.6M19.6 16.8H8.4V14H19.6M7 7H4.2V4.2H7M7 11.2H4.2V8.4H7M8.4 8.4H11.2V11.2H8.4M8.4 4.2H11.2V7H8.4M12.6 8.4H15.4V11.2H12.6M12.6 4.2H15.4V7H12.6M25.2 0H2.8C1.246 0 0 1.246 0 2.8V16.8C0 17.5426 0.294999 18.2548 0.820101 18.7799C1.3452 19.305 2.05739 19.6 2.8 19.6H25.2C25.9426 19.6 26.6548 19.305 27.1799 18.7799C27.705 18.2548 28 17.5426 28 16.8V2.8C28 2.05739 27.705 1.3452 27.1799 0.820101C26.6548 0.294999 25.9426 0 25.2 0Z" fill="#70708C"/>
</svg>
