<svg width="213" height="219" viewBox="0 0 213 219" fill="none" xmlns="http://www.w3.org/2000/svg">
<g filter="url(#filter0_d_2_190)">
<path d="M38.3116 17.9522H36.2242V2.13517C36.2242 1.25248 35.5085 0.536774 34.6258 0.536774C33.7431 0.536774 33.0274 1.25248 33.0274 2.13517V17.9522H28.9956V2.13517C28.9956 1.25248 28.2799 0.536774 27.3972 0.536774C26.5145 0.536774 25.7988 1.25248 25.7988 2.13517V17.9522H21.767V2.13517C21.767 1.25248 21.0513 0.536774 20.1686 0.536774C19.2859 0.536774 18.5702 1.25248 18.5702 2.13517V17.9522H16.4827V39.7811H18.2243L16.4827 115.8C16.4827 119.868 19.7869 123.172 23.8545 123.172H30.9399C35.0075 123.172 38.3116 119.868 38.3116 115.753L36.594 39.7811H38.3116V17.9522V17.9522ZM34.0532 35.5226H32.2401L34.0532 115.8C34.0532 117.518 32.6576 118.914 30.9399 118.914H23.8545C22.1368 118.914 20.7412 117.518 20.7412 115.848L22.5781 35.5226H20.7412V22.2106H34.0532V35.5226Z" fill="white"/>
<path d="M183.289 123.172H176.561C172.649 123.172 169.452 119.987 169.452 116.063L171.17 40.9262C171.17 40.6041 171.182 40.2821 171.194 39.96C167.353 35.8209 165.074 29.2483 165.074 22.1032C165.098 9.70968 171.611 0 179.925 0C188.239 0 194.764 9.70968 194.764 22.1032C194.764 29.2364 192.498 35.8089 188.669 39.9481C188.692 40.2821 188.704 40.628 188.704 40.9739L190.398 116.015C190.398 119.987 187.213 123.172 183.289 123.172ZM179.925 4.25842C174.188 4.25842 169.345 12.4293 169.345 22.1032C169.345 28.4611 171.468 34.4014 174.879 37.622L175.679 38.3735L175.524 39.459C175.464 39.9123 175.428 40.4133 175.428 40.9739L173.71 116.111C173.71 117.637 174.987 118.914 176.561 118.914H183.289C184.863 118.914 186.14 117.637 186.14 116.063L184.446 41.0216C184.446 40.4252 184.41 39.9123 184.351 39.459L184.195 38.3616L184.995 37.6101C188.406 34.3894 190.517 28.4372 190.517 22.1032C190.506 12.4413 185.663 4.25842 179.925 4.25842Z" fill="white"/>
<path d="M104.061 123.172C70.7567 123.172 43.6674 96.0829 43.6674 62.7789C43.6674 29.475 70.7567 2.37373 104.061 2.37373C137.365 2.37373 164.454 29.463 164.454 62.767C164.454 96.071 137.365 123.172 104.061 123.172ZM104.061 6.64409C73.1066 6.64409 47.9258 31.8248 47.9258 62.7789C47.9258 93.733 73.1066 118.914 104.061 118.914C135.015 118.914 160.195 93.733 160.195 62.7789C160.195 31.8248 135.015 6.64409 104.061 6.64409Z" fill="white"/>
<path d="M104.061 111.005C77.4725 111.005 55.8344 89.3673 55.8344 62.779C55.8344 36.1907 77.4725 14.5526 104.061 14.5526C111.814 14.5526 119.222 16.3419 126.081 19.8607C127.13 20.3975 127.536 21.6858 126.999 22.7235C126.462 23.7732 125.174 24.1788 124.136 23.642C117.886 20.4333 111.134 18.811 104.061 18.811C79.8104 18.811 60.0928 38.5405 60.0928 62.779C60.0928 87.0293 79.8223 106.747 104.061 106.747C128.299 106.747 148.029 87.0174 148.029 62.779C148.029 57.9718 147.253 53.2482 145.738 48.7393C145.357 47.6299 145.965 46.4133 147.074 46.0435C148.184 45.6618 149.4 46.2701 149.77 47.3795C151.44 52.3297 152.275 57.5066 152.275 62.779C152.287 89.3673 130.649 111.005 104.061 111.005Z" fill="white"/>
<path d="M83.2337 49.0501C83.1979 47.738 83.1621 46.6048 83.2933 45.4954C83.4603 44.1237 84.2476 43.1098 85.4524 42.4298C86.0846 42.072 86.7764 41.9527 87.4921 41.9527C88.4225 41.9527 89.3649 41.9169 90.2953 41.9408C91.1303 41.9646 91.9533 41.9169 92.7883 41.9289C93.4801 41.9408 94.1601 42.0481 94.7803 42.3583C96.0328 42.9905 96.8201 43.9925 97.1064 45.3762C97.2376 45.9845 97.2137 46.5928 97.1779 47.2012C97.1541 47.6545 97.1302 48.1197 97.1779 48.573C97.2614 49.5153 97.1183 50.4576 97.1779 51.4C97.2137 51.9725 97.1541 52.5212 96.9871 53.058C96.9155 53.2966 96.7604 53.5232 96.6292 53.7499C95.8181 55.1216 94.6133 55.8492 93.003 55.8731C92.4662 55.885 91.9295 55.8612 91.3807 55.897C90.844 55.9327 90.3072 55.885 89.7585 55.8731C89.007 55.8612 88.2675 55.9089 87.516 55.897C85.2854 55.8612 83.4842 54.2747 83.2695 52.0918C83.2098 51.4715 83.2218 50.8513 83.2337 50.231C83.2337 49.7777 83.2337 49.3125 83.2337 49.0501ZM94.3271 48.8592C94.3151 48.8592 94.3151 48.8592 94.3032 48.8592C94.3032 47.9288 94.3151 46.9865 94.3032 46.0561C94.2913 45.4119 93.7545 44.8036 93.17 44.8155C92.3589 44.8274 91.5478 44.7678 90.7366 44.7678C90.1283 44.7797 89.508 44.8036 88.8997 44.8036C88.4583 44.8036 88.005 44.7678 87.5637 44.7678C86.6571 44.7678 86.0607 45.3523 86.0607 46.2588C86.0607 46.7241 86.0965 47.1893 86.0965 47.6545C86.0965 48.406 86.0488 49.1455 86.0607 49.897C86.0726 50.4934 86.0965 51.0779 86.0965 51.6743C86.0965 52.4616 86.6333 52.9984 87.4205 53.0103C89.2217 53.0222 91.011 53.0222 92.8122 53.0222C93.7187 53.0222 94.3151 52.4258 94.3151 51.5312C94.3271 50.6485 94.3271 49.7539 94.3271 48.8592Z" fill="white"/>
<path d="M118.184 41.952C118.756 41.9997 119.627 41.9162 120.498 41.9282C121.798 41.952 122.931 42.3814 123.814 43.3715C124.518 44.1588 124.864 45.1011 124.887 46.1269C124.923 48.0474 124.923 49.9679 124.864 51.8883C124.816 53.3078 124.148 54.4172 122.955 55.2044C122.275 55.6577 121.548 55.8963 120.724 55.8724C119.746 55.8486 118.78 55.9321 117.802 55.8843C116.991 55.8366 116.168 55.9201 115.345 55.9082C114.391 55.8963 113.496 55.6816 112.709 55.1209C111.468 54.2263 110.931 52.9619 110.919 51.4709C110.907 50.8267 110.967 50.1826 110.943 49.5385C110.907 48.3695 110.943 47.1886 110.943 46.0196C110.943 45.1965 111.206 44.457 111.671 43.7771C112.542 42.5246 113.746 41.952 115.249 41.952C116.144 41.952 117.015 41.952 118.184 41.952ZM118.088 53.0335C118.816 52.9977 119.734 53.0573 120.641 53.0454C120.82 53.0454 120.999 53.0454 121.154 52.9619C121.774 52.6398 122.06 52.1388 122.049 51.447C122.037 50.612 121.965 49.7651 122.025 48.9301C122.084 47.9639 122.001 46.9977 122.001 46.0315C122.001 45.3635 121.571 44.8864 120.915 44.8506C120.009 44.791 119.09 44.7313 118.172 44.791C117.719 44.8268 117.253 44.8387 116.8 44.8148C116.287 44.791 115.786 44.791 115.273 44.779C114.474 44.7671 113.758 45.4232 113.782 46.2701C113.818 48.1071 113.818 49.944 113.806 51.781C113.806 52.3893 114.474 53.0454 115.047 53.0335C115.989 53.0215 116.955 53.0335 118.088 53.0335Z" fill="white"/>
<path d="M83.2576 76.5681C83.2576 75.5064 83.1979 74.4448 83.2695 73.3951C83.3649 72.0711 84.0448 71.0571 85.1542 70.3295C85.8222 69.8882 86.5498 69.6496 87.349 69.6735C88.3271 69.6973 89.2933 69.6138 90.2714 69.6615C91.0826 69.7092 91.9056 69.6257 92.7287 69.6377C93.7545 69.6615 94.7207 69.8882 95.5438 70.5442C96.677 71.4508 97.1422 72.6794 97.1779 74.087C97.1899 74.7549 97.1183 75.411 97.1541 76.079C97.2018 77.2241 97.1422 78.3573 97.1541 79.5024C97.166 80.3255 96.9036 81.0531 96.4503 81.7211C95.5915 82.9855 94.3867 83.5938 92.8599 83.5819C91.0706 83.5819 89.2933 83.6058 87.504 83.6058C85.6194 83.6058 83.9852 82.401 83.4245 80.6118C83.2098 79.9557 83.186 79.2639 83.2098 78.5839C83.2456 77.9159 83.2576 77.248 83.2576 76.5681ZM89.9613 72.5243C89.3649 72.5601 88.4702 72.5363 87.5756 72.5005C86.6929 72.4647 86.0369 73.2162 86.0607 74.0035C86.0726 74.6714 86.1204 75.3275 86.0965 75.9955C86.0488 77.1287 86.0726 78.2619 86.1084 79.3831C86.1323 80.1227 86.5021 80.6595 87.1701 80.6953C88.1005 80.7549 89.0428 80.8145 89.9732 80.7549C90.4742 80.7191 90.9752 80.7072 91.4643 80.743C91.9414 80.7788 92.4185 80.7788 92.8957 80.7668C93.6352 80.7549 94.3509 80.1227 94.339 79.3235C94.3032 77.4627 94.3271 75.6019 94.3151 73.741C94.3151 73.1565 93.7068 72.5243 93.1462 72.5124C92.1919 72.5124 91.2257 72.5243 89.9613 72.5243Z" fill="white"/>
<path d="M102.605 41.9282C103.357 41.9878 103.953 41.9043 104.562 41.9759C105.802 42.1429 106.756 42.7512 107.52 43.7413C108.522 45.0534 108.45 47.2482 107.568 48.4888C106.733 49.6577 105.611 50.278 104.168 50.3138C103.369 50.3377 102.737 50.8625 102.737 51.6021C102.725 52.3536 103.273 52.9977 104.061 53.0096C104.979 53.0335 105.909 53.0096 106.84 53.0096C107.401 53.0096 107.997 53.4032 108.176 53.8804C108.402 54.4649 108.283 55.0374 107.818 55.4788C107.591 55.6935 107.305 55.8366 106.983 55.8724C106.422 55.9321 105.862 55.8724 105.301 55.8605C104.788 55.8486 104.263 55.9201 103.75 55.8605C102.236 55.7054 101.114 54.9301 100.363 53.5822C99.325 51.7214 100.029 48.9301 102.247 47.8804C102.832 47.6061 103.464 47.4987 104.12 47.451C104.848 47.4033 105.289 47.0097 105.408 46.3655C105.54 45.6498 105.063 44.946 104.347 44.8268C103.739 44.7194 103.13 44.7671 102.51 44.7791C101.949 44.791 101.389 44.8983 100.84 44.6836C100.148 44.4093 99.7783 43.7771 99.8976 43.0852C100.005 42.453 100.649 41.9282 101.329 41.9162C101.794 41.9162 102.271 41.9282 102.605 41.9282Z" fill="white"/>
<path d="M116.574 83.5938C115.953 83.5938 115.333 83.5938 114.701 83.5938C113.937 83.5938 113.186 83.6176 112.423 83.6057C111.48 83.5938 110.776 82.7588 110.955 81.8761C111.087 81.2558 111.719 80.7429 112.411 80.719C112.816 80.7071 113.222 80.731 113.627 80.7548C114.14 80.7787 114.641 80.7668 115.154 80.731C115.727 80.6952 116.299 80.7429 116.86 80.7548C118.088 80.7667 119.305 80.6833 120.534 80.7668C121.345 80.8145 122.12 80.0988 122.049 79.2399C122.025 78.8224 122.013 78.4049 122.001 77.9994C121.989 77.4865 122.037 76.9855 122.037 76.4725C122.025 75.1366 122.025 73.8006 122.037 72.4527C122.049 72.0113 121.989 71.5581 122.001 71.1167C122.037 70.2102 122.812 69.5422 123.695 69.6734C124.327 69.7569 124.876 70.401 124.888 71.1167C124.9 72.5243 124.876 73.9199 124.876 75.3274C124.876 76.0193 124.888 76.723 124.888 77.4149C124.888 78.2737 124.923 79.1445 124.816 80.0033C124.637 81.4109 123.874 82.4367 122.645 83.1286C121.989 83.4983 121.285 83.6057 120.546 83.6057C119.234 83.6057 117.91 83.5938 116.574 83.5938Z" fill="white"/>
<path d="M116.609 58.5801C117.945 58.5801 119.293 58.5801 120.629 58.5801C121.309 58.5801 121.977 58.6755 122.586 59.0095C124.005 59.7968 124.852 60.9896 124.888 62.6119C124.935 64.8306 123.444 66.5721 121.333 66.8942C120.355 67.0492 119.389 66.918 118.411 66.9419C118.148 66.9538 117.898 66.9777 117.635 66.918C116.884 66.763 116.419 66.1069 116.526 65.3316C116.621 64.6159 117.325 64.0433 118.041 64.091C118.995 64.1507 119.949 64.0791 120.904 64.0552C121.584 64.0433 122.073 63.3515 122.049 62.8028C122.013 62.0274 121.488 61.4429 120.772 61.4071C120.355 61.3952 119.949 61.3952 119.532 61.431C118.971 61.4787 118.411 61.4071 117.85 61.4071C116.466 61.4071 115.095 61.431 113.711 61.4071C113.317 61.3952 112.924 61.4429 112.53 61.4429C111.981 61.431 111.504 61.2521 111.194 60.763C110.598 59.8087 111.266 58.5801 112.387 58.5563C113.794 58.5324 115.214 58.5563 116.621 58.5563C116.609 58.5801 116.609 58.5801 116.609 58.5801Z" fill="white"/>
<path d="M99.8619 71.0929C99.8619 69.2559 99.8738 67.419 99.8619 65.5701C99.85 64.4369 101.091 63.8047 101.89 64.2341C102.45 64.5323 102.772 65.0094 102.749 65.6416C102.701 66.4289 102.737 67.2162 102.76 68.0034C102.772 68.4687 102.737 68.9339 102.725 69.3991C102.713 69.5899 102.784 69.6615 102.975 69.6496C103.464 69.6376 103.953 69.6257 104.442 69.6138C105.289 69.6018 106.148 69.6257 106.995 69.6496C107.699 69.6734 108.224 70.246 108.271 71.0094C108.307 71.6893 107.77 72.3931 107.102 72.4408C106.1 72.5124 105.087 72.5004 104.085 72.4885C103.727 72.4766 103.357 72.4885 102.999 72.4766C102.784 72.4647 102.725 72.5601 102.737 72.7509C102.76 73.1684 102.784 73.5859 102.772 73.9915C102.772 74.91 102.76 75.8165 102.737 76.735C102.725 77.4149 102.021 78.0352 101.293 78.0233C100.53 78.0113 99.9215 77.4388 99.9096 76.6754C99.8858 75.6614 99.8977 74.6356 99.8977 73.6217C99.8619 72.7986 99.8619 71.9517 99.8619 71.0929Z" fill="white"/>
<path d="M119.365 73.9676C119.353 76.1147 117.349 78.1306 115.202 78.071C112.745 77.9994 110.896 76.2817 110.967 73.5382C110.991 72.5004 111.48 71.6177 112.208 70.8901C112.756 70.3414 113.413 69.8523 114.188 69.733C117.647 69.1963 119.365 71.7847 119.365 73.9676ZM115.19 72.5124C114.462 72.5004 113.806 73.1446 113.794 73.8603C113.782 74.5879 114.403 75.2201 115.13 75.2082C115.846 75.2082 116.49 74.576 116.502 73.8603C116.514 73.1446 115.906 72.5124 115.19 72.5124Z" fill="white"/>
<path d="M110.896 66.9658C110.276 66.9539 109.655 67.0016 109.035 66.9181C107.437 66.7034 106.363 65.8326 105.731 64.3773C105.492 63.8406 105.397 63.2799 105.397 62.6835C105.409 61.9678 104.705 61.3952 104.001 61.443C103.023 61.5145 102.045 61.443 101.079 61.4072C100.447 61.3833 99.9933 60.8465 99.886 60.1547C99.7906 59.5821 100.125 58.9738 100.661 58.7114C100.864 58.6159 101.091 58.5921 101.294 58.5921C102.415 58.604 103.536 58.4967 104.657 58.6398C105.552 58.7591 106.303 59.1169 106.971 59.7491C107.842 60.5722 108.176 61.5742 108.26 62.7193C108.307 63.4589 108.785 64.1865 109.751 64.1268C110.633 64.0791 111.516 64.0791 112.399 64.1268C112.959 64.1626 113.401 64.3893 113.651 64.9141C113.878 65.3912 113.878 65.8684 113.592 66.3097C113.293 66.763 112.852 66.9539 112.315 66.9539C111.838 66.9658 111.373 66.9658 110.896 66.9658Z" fill="white"/>
<path d="M91.6791 58.5681C92.347 58.6158 92.9554 58.5323 93.5518 58.6158C94.9236 58.8186 95.9494 59.5343 96.6293 60.739C97.011 61.4189 97.2138 62.1346 97.1661 62.9338C97.1184 63.745 97.19 64.5561 97.19 65.3672C97.19 66.1306 96.7605 66.739 96.1164 66.9179C95.2099 67.1684 94.3272 66.5123 94.3152 65.5581C94.3033 64.7112 94.3272 63.8762 94.3272 63.0293C94.3272 62.7549 94.3152 62.4686 94.184 62.2062C93.9097 61.6694 93.4564 61.4189 92.8719 61.4189C92.0369 61.4189 91.2139 61.4547 90.3789 61.4547C89.6155 61.4547 89.0429 61.0611 88.8282 60.4289C88.53 59.5343 89.2338 58.6038 90.2477 58.58C90.7487 58.5561 91.2496 58.5681 91.6791 58.5681Z" fill="white"/>
<path d="M88.7447 66.9777C88.0409 66.9419 87.3848 66.9896 86.7288 66.918C86.0608 66.8464 85.4882 66.5482 84.9514 66.1546C83.7586 65.2719 83.2099 64.091 83.2218 62.6119C83.2338 61.7769 83.198 60.9538 83.2099 60.1189C83.2099 59.4151 83.6513 58.7948 84.2357 58.6278C85.1781 58.3654 86.0846 59.0572 86.0966 60.0711C86.1085 60.8823 86.0608 61.6934 86.0608 62.4926C86.0608 63.1009 86.2278 63.6139 86.7884 63.9479C87.0031 64.0791 87.2298 64.1148 87.4683 64.1148C88.1721 64.1029 88.8759 64.0791 89.5797 64.0791C89.9733 64.0791 90.3669 64.0791 90.7367 64.2461C91.357 64.5085 91.6433 64.9856 91.5717 65.7132C91.524 66.2858 91.0588 66.7868 90.4623 66.9061C89.8898 67.0254 89.2934 66.9419 88.7447 66.9777Z" fill="white"/>
<path d="M108.259 78.071C108.236 78.7271 108.295 79.3712 108.2 80.0273C107.961 81.5302 107.114 82.568 105.79 83.2241C105.253 83.4984 104.633 83.57 104.037 83.5939C103.035 83.6296 102.045 83.6296 101.043 83.5461C100.363 83.4865 99.8499 82.8662 99.8738 82.1625C99.8857 81.399 100.399 80.7907 101.114 80.7788C102.104 80.7668 103.083 80.6714 104.073 80.743C104.752 80.7907 105.361 80.2539 105.373 79.4786C105.385 78.5839 105.468 77.6893 105.397 76.8066C105.361 76.3891 105.48 76.0313 105.754 75.7211C106.16 75.2559 106.792 75.0889 107.365 75.2917C107.878 75.4707 108.247 76.0313 108.247 76.6396C108.259 77.1168 108.259 77.5939 108.259 78.071Z" fill="white"/>
<path d="M92.2994 48.8823C92.3233 50.0513 91.4048 51.0771 89.9973 51.0175C89.0191 50.9817 88.041 50.0036 88.0887 48.9658C88.1364 47.6418 88.9595 46.8306 90.2835 46.7949C91.3809 46.7591 92.3114 47.7611 92.2994 48.8823Z" fill="white"/>
<path d="M120.033 48.8704C120.021 50.2184 119.031 51.0295 117.862 51.0414C116.74 51.0533 115.727 50.0156 115.798 48.9301C115.87 47.6657 116.729 46.7472 118.172 46.7949C119.114 46.8307 120.057 47.8804 120.033 48.8704Z" fill="white"/>
<path d="M90.1401 78.7391C89.1501 78.7629 88.1123 77.8087 88.0885 76.8663C88.0407 75.4111 88.9831 74.5641 90.2356 74.5045C91.321 74.4568 92.3707 75.4826 92.335 76.58C92.2872 77.7729 91.4761 78.7391 90.1401 78.7391Z" fill="white"/>
<path d="M32.7144 143.523L32.1127 144.35C31.7116 144.15 31.1852 144.074 30.5585 144.125C29.9318 144.175 29.2299 144.325 28.4778 144.576C29.9945 144.024 31.2604 143.749 32.2631 143.749C32.3133 143.648 32.3383 143.611 32.3383 143.636C32.3383 143.661 32.3634 143.623 32.4136 143.523C32.5138 143.423 32.6517 143.31 32.8272 143.185C33.0027 143.059 33.1656 142.997 33.316 142.997H36.8757L38.994 142.62L47.63 144.588L50.5881 142.771C50.7385 142.671 50.939 142.633 51.1897 142.658C51.4404 142.683 51.6409 142.746 51.7913 142.846L52.4682 143.297C52.5685 143.398 52.6813 143.535 52.8066 143.711C52.9319 143.886 52.9946 144.049 52.9946 144.2L53.0698 147.985L52.5434 159.354C52.5434 159.654 52.5685 159.968 52.6186 160.306C52.6687 160.632 52.6938 160.92 52.6938 161.184C52.6938 161.484 52.581 161.748 52.3554 161.973C52.1298 162.199 51.8665 162.312 51.5657 162.312H50.3499C49.7984 162.312 49.3346 162.086 48.9837 161.635C48.6327 161.184 48.2818 160.519 47.9183 159.667C47.6175 159.015 47.1913 158.238 46.6273 157.361C46.0758 156.483 45.3488 155.643 44.4714 154.866C43.5815 154.089 42.5286 153.45 41.2877 152.974C40.0468 152.497 38.5678 152.284 36.8506 152.334C36.1989 152.385 35.4969 152.522 34.77 152.748C34.043 152.974 33.3285 153.249 32.6517 153.575C31.9749 153.901 31.3356 154.277 30.759 154.716C30.1825 155.142 29.7312 155.593 29.4304 156.045C29.1797 156.496 28.9291 156.947 28.6784 157.373C28.4277 157.799 28.2522 158.15 28.1519 158.401C27.9514 158.802 27.7634 159.216 27.5879 159.617C27.4124 160.018 27.1993 160.432 26.9487 160.833C26.9487 160.933 26.9236 161.108 26.8735 161.359C26.8233 161.61 26.7481 161.86 26.6478 162.111C26.5476 162.512 26.4097 162.988 26.2342 163.515C26.0587 164.041 25.8707 164.493 25.6702 164.844L25.8958 165.069V165.746C25.8958 166.661 25.6451 167.588 25.1437 168.554C25.2942 169.256 25.4571 169.97 25.6326 170.672C25.8081 171.374 25.971 172.088 26.1214 172.79C26.2217 173.956 26.5852 175.422 27.2244 177.19C27.8511 178.957 28.716 180.662 29.8065 182.304C30.8969 183.946 32.213 185.362 33.7798 186.553C35.3465 187.743 37.1139 188.332 39.0817 188.332H40.8992C41.4005 188.282 41.8518 188.245 42.2654 188.22C42.6665 188.195 43.1177 188.157 43.6316 188.107C44.0828 187.906 44.3711 187.768 44.4965 187.693C44.6218 187.618 44.9352 187.455 45.4491 187.204C45.3488 186.803 45.4365 186.44 45.7123 186.101C45.988 185.776 46.3264 185.663 46.7401 185.763C46.9908 185.813 47.2038 185.863 47.3793 185.913C47.5548 185.964 47.7177 186.039 47.8681 186.139C47.7679 186.089 47.8681 186.064 48.169 186.064C48.2692 186.064 48.5074 185.863 48.8834 185.462C49.2594 185.061 49.648 184.61 50.0616 184.096C50.6131 183.394 51.1772 182.78 51.7287 182.279C52.2802 181.777 52.8442 181.526 53.3957 181.526C53.9472 181.526 54.3483 181.714 54.5739 182.091C54.7995 182.467 54.9249 182.93 54.9499 183.457C54.975 183.983 54.9499 184.56 54.8747 185.161C54.7995 185.763 54.7369 186.277 54.6867 186.678V190.238C54.6867 190.889 54.4611 191.629 54.0099 192.431C53.5586 193.246 52.8442 193.923 51.8916 194.474C51.6409 194.575 51.29 194.775 50.8262 195.076C50.375 195.377 49.8861 195.678 49.3848 195.991L48.169 196.831C47.0033 197.332 45.3237 197.746 43.1302 198.046C40.9368 198.347 38.6681 198.498 36.3493 198.498C34.9831 198.498 33.667 198.435 32.4136 198.31C31.1476 198.184 30.0195 197.946 29.0043 197.595C27.0364 196.943 25.3694 196.254 24.0031 195.552C22.6369 194.85 21.4086 194.036 20.3306 193.133C19.2402 192.218 18.2249 191.19 17.2598 190.025C16.2946 188.859 15.2668 187.468 14.1513 185.851C13.7502 185.299 13.487 184.835 13.3617 184.485C13.2363 184.134 13.1736 183.808 13.1736 183.494C13.1736 183.394 13.136 183.269 13.0608 183.118C12.9856 182.968 12.7976 182.642 12.4968 182.128C12.0456 181.376 11.7824 180.825 11.7072 180.499C11.6319 180.173 11.6445 179.809 11.7448 179.396C11.845 179.095 11.82 178.694 11.6695 178.18C11.4189 177.478 11.2434 176.776 11.1431 176.099C11.0428 175.422 10.9426 174.796 10.8423 174.244C10.742 173.592 10.6668 172.991 10.6167 172.464C10.5665 171.938 10.4412 171.549 10.2407 171.286C10.0401 171.035 9.9649 170.76 10.015 170.446C10.0652 170.145 10.2156 169.895 10.4663 169.694C10.5665 169.594 10.6417 169.23 10.6919 168.591C10.742 167.965 10.7922 167.238 10.8423 166.435C10.8924 165.42 10.9802 164.355 11.1055 163.214C11.2309 162.073 11.5442 161.083 12.0581 160.218L12.9731 158.401C13.3742 157.599 13.8129 156.734 14.3017 155.819C14.778 154.904 15.2919 154.052 15.8183 153.237C16.3448 152.435 16.8963 151.72 17.4478 151.119C17.9993 150.517 18.5884 150.128 19.19 149.978C19.0898 150.128 19.0898 150.279 19.19 150.429C18.5884 150.479 17.9617 150.88 17.335 151.645C16.7083 152.397 16.0816 153.3 15.4799 154.34C14.8783 155.38 14.3017 156.421 13.7753 157.486C13.2488 158.551 12.7976 159.429 12.4467 160.143C12.0456 160.845 11.7824 161.723 11.657 162.763C11.5317 163.803 11.4565 164.806 11.4314 165.796C11.4063 166.786 11.3437 167.664 11.2434 168.453C11.1431 169.23 10.9175 169.757 10.5665 170.008C10.8172 170.359 10.9927 170.822 11.093 171.374C11.1932 171.925 11.281 172.527 11.3562 173.154C11.4314 173.78 11.5191 174.47 11.6194 175.197C11.7197 175.924 11.8952 176.626 12.1458 177.277C12.2963 177.829 12.3715 178.243 12.3715 178.493C12.3715 178.744 12.3464 178.969 12.2963 179.17C12.2461 179.371 12.2587 179.584 12.3339 179.809C12.4091 180.035 12.5971 180.398 12.8979 180.912C13.2488 181.514 13.4745 181.965 13.5747 182.241C13.675 182.517 13.7251 182.742 13.7251 182.918C13.7251 183.093 13.7627 183.294 13.838 183.519C13.9132 183.745 14.1262 184.083 14.4772 184.547C15.7431 186.315 16.796 187.768 17.6609 188.909C18.5257 190.05 19.4282 191.015 20.3933 191.83C21.3584 192.632 22.474 193.359 23.765 193.985C25.056 194.612 26.7356 195.264 28.8037 195.916C30.0195 196.317 31.486 196.567 33.2032 196.668C34.9204 196.768 36.6626 196.768 38.4299 196.668C40.1973 196.567 41.8643 196.379 43.4311 196.104C44.9978 195.828 46.2136 195.515 47.066 195.151C47.4169 194.951 47.981 194.6 48.733 194.086C49.4851 193.584 50.1744 193.171 50.7761 192.87C51.5281 192.419 52.1047 191.867 52.4807 191.24C52.8567 190.614 53.0197 190.062 52.9695 189.611V186.126C52.9695 186.026 53.0071 185.763 53.0823 185.337C53.1576 184.911 53.2077 184.434 53.2328 183.933C53.2578 183.432 53.2453 182.98 53.1952 182.604C53.145 182.228 53.0197 182.04 52.8191 182.04C52.5183 182.04 52.1423 182.279 51.6785 182.755C51.2273 183.231 50.7385 183.758 50.2371 184.309C49.7357 184.861 49.2469 185.387 48.7957 185.863C48.3444 186.34 47.9308 186.578 47.5799 186.578C47.3292 186.578 47.1537 186.565 47.0534 186.54C46.9532 186.515 46.8654 186.49 46.7902 186.465C46.715 186.44 46.6273 186.415 46.527 186.39C46.4267 186.365 46.2512 186.327 46.0006 186.277L46.3766 187.192L43.3433 188.633L40.3853 188.859H38.4926C36.3242 188.859 34.3814 188.245 32.6893 187.004C30.9972 185.763 29.5558 184.284 28.365 182.567C27.1743 180.85 26.2468 179.057 25.5574 177.19C24.8805 175.322 24.4794 173.78 24.3792 172.565L23.3138 167.714C23.6146 167.313 23.8277 166.887 23.953 166.423C24.0783 165.972 24.141 165.545 24.141 165.132C24.141 164.781 24.141 164.568 24.141 164.493C24.141 164.417 24.1285 164.38 24.1034 164.38C24.0783 164.38 24.0407 164.38 23.9906 164.38C23.9405 164.38 23.8653 164.254 23.765 164.004C24.0658 163.803 24.2789 163.502 24.4042 163.089C24.5296 162.688 24.6424 162.274 24.7427 161.835C24.8429 161.409 24.9307 160.996 25.0059 160.582C25.0811 160.181 25.1939 159.855 25.3443 159.592C25.8457 158.79 26.2718 157.987 26.5977 157.21C26.9236 156.433 27.3372 155.631 27.8511 154.829C28.2021 154.277 28.6909 153.751 29.3302 153.275C29.9569 152.798 30.6713 152.36 31.4484 151.983C32.2255 151.607 33.0277 151.294 33.8299 151.031C34.6321 150.78 35.4217 150.63 36.1738 150.58C38.9564 150.329 41.1498 150.705 42.7668 151.72C44.3837 152.736 45.6371 153.889 46.5145 155.205C47.3919 156.521 48.0562 157.749 48.4823 158.877C48.9085 160.018 49.3221 160.582 49.7357 160.582H50.9515L50.8011 158.689L51.3276 147.321L51.2524 143.611L50.5755 143.159L46.715 145.503L46.7902 145.127L38.3046 143.159L36.2615 143.535H32.7144V143.523ZM50.1494 146.105C50.0992 146.306 50.024 146.619 49.9237 147.058C49.8235 147.484 49.7733 147.822 49.7733 148.085V149.226L49.8485 151.119L49.7733 152.259L49.8485 154.152L49.7733 155.293C49.7733 155.694 49.8109 155.932 49.8861 156.007C49.9613 156.082 50.0491 156.245 50.1494 156.496H49.3973V157.097C48.8458 156.797 48.4698 156.358 48.2943 155.769C48.1188 155.192 47.7553 154.49 47.1913 153.688C46.7401 152.986 46.2512 152.497 45.7499 152.247C45.2485 151.996 44.6343 151.67 43.9324 151.257C42.8169 150.555 41.5885 150.028 40.2223 149.702C38.8561 149.376 37.5149 149.339 36.1989 149.589C34.7324 149.84 33.4037 150.141 32.2255 150.504C31.0348 150.855 29.9443 151.545 28.9291 152.548C28.4778 152.999 27.989 153.525 27.4876 154.102C26.9863 154.678 26.51 155.28 26.0838 155.882C25.6576 156.483 25.2691 157.072 24.9432 157.624C24.6173 158.175 24.4042 158.689 24.304 159.14C23.8026 161.108 23.4266 162.625 23.201 163.69C22.9753 164.756 22.8249 165.683 22.7497 166.498C22.6745 167.3 22.6745 168.165 22.7497 169.08C22.8249 169.995 22.9377 171.223 23.0882 172.79C23.2386 174.407 23.577 175.874 24.116 177.19C24.6424 178.506 25.244 179.747 25.8958 180.9C26.5476 182.065 27.2119 183.219 27.8637 184.384C28.5154 185.55 29.0293 186.778 29.3803 188.094L28.6282 188.846L26.4348 188.17C26.4849 189.085 26.7983 189.749 27.3874 190.175C27.9639 190.601 28.6408 190.952 29.3928 191.203C30.1449 191.454 30.8844 191.692 31.5863 191.917C32.2882 192.143 32.8522 192.506 33.2533 193.02H38.1041C39.2196 193.02 40.5106 192.857 42.0022 192.531C43.4937 192.206 44.9226 191.742 46.2888 191.128C47.6551 190.526 48.8207 189.799 49.7733 188.972C50.7259 188.144 51.2649 187.217 51.3652 186.202H51.7412L51.8164 188.47C51.8164 188.972 51.8415 189.31 51.8916 189.498C51.9417 189.674 51.9292 189.824 51.854 189.949C51.7788 190.075 51.6284 190.25 51.4028 190.476C51.1772 190.701 50.8137 191.065 50.2998 191.579C49.8987 191.98 49.3221 192.406 48.5951 192.87C47.8681 193.321 47.1662 193.685 46.5145 193.935C46.1134 194.086 45.5869 194.249 44.9602 194.424C44.3335 194.6 43.6692 194.788 42.9924 194.988C42.3155 195.189 41.6637 195.352 41.0621 195.477C40.4605 195.602 39.9716 195.665 39.6207 195.665H33.2533C32.9525 195.665 32.4637 195.577 31.8119 195.402C31.1601 195.226 30.4457 195.013 29.6936 194.763C28.9416 194.512 28.2021 194.261 27.5002 194.01C26.7983 193.76 26.2342 193.584 25.8331 193.484C25.4822 193.434 24.9432 193.196 24.2413 192.77C23.5394 192.343 22.8375 191.83 22.1606 191.253C21.4838 190.676 20.9072 190.1 20.456 189.548C20.0048 188.997 19.8543 188.508 20.0048 188.107H18.8641L18.4881 185.149L18.7137 184.773L23.6397 188.107L23.4892 188.633L24.6298 187.418C23.765 186.816 22.9503 185.951 22.1606 184.835C21.371 183.72 20.6816 182.517 20.08 181.201C19.4783 179.885 18.9895 178.568 18.6385 177.265C18.2876 175.949 18.1121 174.796 18.1121 173.78C18.1622 173.68 18.2124 173.555 18.2625 173.404C18.3628 173.154 18.438 173.028 18.4881 173.028L17.7361 172.276L17.8113 168.867L17.7361 167.726L17.8113 165.834L17.7361 164.317H18.4881C18.3377 164.066 18.2124 163.941 18.1121 163.941C18.1121 163.841 18.1121 163.59 18.1121 163.189C18.1121 162.688 18.3377 161.823 18.7889 160.607C19.2402 159.391 19.8167 158.138 20.4936 156.859C21.1704 155.568 21.8974 154.415 22.6495 153.375C23.4015 152.334 24.0658 151.695 24.6173 151.445C24.9181 151.294 25.3443 151.056 25.9083 150.73C26.4598 150.404 27.0615 150.053 27.6882 149.665C28.3149 149.289 28.9667 148.925 29.6184 148.562C30.2702 148.211 30.8844 147.96 31.4359 147.81C31.7367 147.759 32.1879 147.684 32.8021 147.584C33.4037 147.484 34.043 147.396 34.6948 147.321C35.3465 147.246 35.9732 147.183 36.5498 147.133C37.1264 147.083 37.5024 147.058 37.6528 147.058H38.8686C39.2196 147.058 39.7586 147.12 40.4981 147.246C41.2251 147.371 41.9771 147.546 42.7291 147.772C43.4812 147.998 44.1956 148.311 44.8474 148.725C45.4992 149.126 45.9128 149.589 46.0632 150.091L47.8807 149.176L48.3319 147.208L50.1494 146.105ZM45.1482 150.88C45.2485 150.981 45.3363 151.043 45.4115 151.069C45.4867 151.094 45.5744 151.156 45.6747 151.257C45.6747 151.206 45.6621 151.169 45.6371 151.144C45.612 151.119 45.5995 151.081 45.5995 151.031C45.4491 150.63 45.1106 150.291 44.5717 150.003C44.0452 149.727 43.4436 149.489 42.7918 149.289C42.14 149.088 41.4883 148.95 40.8616 148.875C40.2349 148.8 39.7586 148.762 39.4577 148.762H38.2419C38.0915 148.762 37.7531 148.787 37.2141 148.837C36.6877 148.888 36.0986 148.938 35.4719 148.988C34.8452 149.038 34.231 149.113 33.6544 149.213C33.0779 149.314 32.6266 149.389 32.3258 149.439C31.7743 149.589 31.0348 149.928 30.1323 150.467C29.2173 150.993 28.3901 151.495 27.6255 151.946C27.2244 152.197 26.7983 152.447 26.3345 152.698C25.8833 152.949 25.5198 153.124 25.2691 153.224C24.8179 153.425 24.2664 153.989 23.6397 154.929C23.0129 155.869 22.3988 156.909 21.8222 158.075C21.2456 159.241 20.7568 160.356 20.3808 161.447C20.0048 162.537 19.8167 163.302 19.8167 163.753V164.054C19.8669 164.104 19.8919 164.142 19.8919 164.167C19.8919 164.192 19.917 164.229 19.9672 164.279C20.2178 164.63 20.2805 164.969 20.1552 165.307C20.0298 165.633 19.8167 165.846 19.5159 165.947V166.398L19.4407 168.29L19.5159 169.431L19.4407 172.314L19.8919 172.765C20.1426 173.066 20.2554 173.379 20.2304 173.718C20.2053 174.044 20.0674 174.307 19.8167 174.507C19.8167 175.472 19.9797 176.563 20.3056 177.804C20.6315 179.045 21.0702 180.273 21.6342 181.476C22.1857 182.692 22.8249 183.795 23.5268 184.81C24.2288 185.826 24.9933 186.578 25.7955 187.079C26.0963 187.38 26.2718 187.631 26.322 187.831C26.5726 187.58 26.9236 187.53 27.3874 187.681L28.6032 188.057C28.3525 187.204 28.0141 186.402 27.5754 185.675C27.1492 184.948 26.6729 184.146 26.1715 183.294C25.3067 181.877 24.5296 180.398 23.8277 178.857C23.1258 177.315 22.6871 175.535 22.5366 173.517C22.4865 173.266 22.4614 172.991 22.4614 172.69C22.4614 172.389 22.4364 172.138 22.3862 171.938C22.286 171.136 22.2233 170.434 22.1982 169.857C22.1732 169.281 22.1606 168.704 22.1606 168.153C22.1606 167.601 22.1857 167.05 22.2358 166.523C22.286 165.997 22.3737 165.395 22.499 164.743C22.6244 164.091 22.7873 163.327 22.9879 162.475C23.1884 161.622 23.4391 160.607 23.7399 159.441C23.8903 158.94 24.141 158.363 24.492 157.737C24.8429 157.11 25.244 156.471 25.7078 155.844C26.159 155.217 26.6604 154.578 27.1868 153.951C27.7132 153.325 28.2146 152.773 28.6658 152.322C29.7814 151.206 30.9596 150.454 32.2255 150.053C33.4915 149.652 34.9329 149.326 36.5498 149.063C38.0163 148.812 39.5079 148.862 41.0245 149.213C42.5662 149.564 43.9324 150.116 45.1482 150.88ZM30.5961 193.171C29.5307 192.87 28.528 192.456 27.5628 191.917C26.5977 191.391 26.0462 190.413 25.8958 188.997L24.9056 190.062C24.5045 190.463 24.0783 190.564 23.6146 190.363C23.1634 190.162 22.9377 189.786 22.9377 189.222V189.147C22.6871 188.997 22.474 188.846 22.2985 188.696C22.123 188.546 21.9099 188.42 21.6593 188.32C21.7595 188.571 21.7595 188.846 21.6593 189.147C21.559 189.398 21.6969 189.724 22.0729 190.137C22.4489 190.539 22.9252 190.952 23.5143 191.353C24.0909 191.754 24.6925 192.118 25.2942 192.456C25.8958 192.782 26.3596 192.97 26.6604 193.02C26.9111 193.121 27.2495 193.221 27.6882 193.321C28.1143 193.421 28.553 193.547 29.0168 193.697C29.9819 194.048 30.9471 194.374 31.9373 194.687C32.9275 194.988 33.5667 195.139 33.8675 195.139H40.2349C40.5357 195.139 40.9744 195.076 41.5635 194.951C42.14 194.825 42.7542 194.675 43.3809 194.499C44.0076 194.324 44.6343 194.148 45.236 193.973C45.8376 193.797 46.3515 193.634 46.7526 193.484C47.3041 193.283 47.9058 192.983 48.5325 192.569C49.1592 192.168 49.6856 191.767 50.0867 191.353L51.0017 190.438C50.2496 191.09 49.3472 191.692 48.3068 192.218C47.2665 192.745 46.1886 193.208 45.048 193.584C43.9074 193.96 42.8044 194.249 41.7139 194.462C40.6234 194.662 39.6332 194.763 38.7182 194.763H33.855C33.7547 194.763 33.6043 194.712 33.4037 194.612C33.2032 194.512 33.0528 194.412 32.9525 194.311C32.7018 194.01 32.3759 193.785 31.9623 193.634C31.5612 193.472 31.0975 193.321 30.5961 193.171ZM49.2469 150.58C49.1466 150.68 49.0714 150.73 49.0213 150.73L47.2038 151.645C47.0033 151.745 46.8529 151.795 46.7526 151.795C47.1537 151.996 47.5172 152.234 47.8556 152.51C48.1815 152.786 48.4949 153.174 48.8082 153.688C48.9085 153.788 48.9962 153.926 49.0714 154.102C49.1466 154.277 49.2344 154.465 49.3346 154.666L49.2594 152.848L49.3346 151.708L49.2469 150.58Z" fill="white"/>
<path d="M69.853 158.075L73.8639 158.526C74.265 158.526 74.616 158.501 74.9293 158.451C75.2302 158.401 75.5811 158.376 75.9947 158.376H78.9528C78.9528 158.326 79.0029 158.276 79.1032 158.226C79.2035 158.125 79.379 158.075 79.6297 158.075C79.8803 158.075 80.0558 158.1 80.1561 158.15L81.2967 158.602C81.6476 158.752 81.8733 158.99 81.9735 159.316C82.0738 159.642 82.0237 159.955 81.8231 160.269C81.1212 161.334 80.5697 162.174 80.1937 162.813C79.8177 163.44 79.5544 164.041 79.404 164.593C79.2536 165.144 79.1659 165.746 79.1408 166.373C79.1157 166.999 79.1032 167.877 79.1032 168.992V172.702C79.1032 173.354 79.0907 174.019 79.0656 174.67C79.0405 175.322 79.028 176.011 79.028 176.713V181.714C79.028 182.579 79.0405 183.407 79.0656 184.221C79.0907 185.036 79.1032 185.863 79.1032 186.728C79.1032 187.229 79.0907 187.681 79.0656 188.057C79.0405 188.433 79.028 188.771 79.028 189.085C79.028 189.786 79.028 190.363 79.028 190.789C79.028 191.215 79.1283 191.654 79.3288 192.118C79.5294 192.569 79.8177 193.121 80.1937 193.747C80.5697 194.374 81.1463 195.251 81.8983 196.367C82.149 196.768 82.1866 197.157 82.0111 197.545C81.8357 197.921 81.4972 198.109 80.9833 198.109L79.7675 198.184C79.5168 198.435 79.2411 198.56 78.9277 198.56C78.6269 198.56 78.3512 198.435 78.1005 198.184L77.7997 197.884C77.4487 197.884 77.1479 197.909 76.8847 197.959C76.634 198.009 76.3332 198.034 75.9697 198.034H69.5271L66.1931 198.109C65.6917 198.109 65.3282 197.921 65.1276 197.545C64.9271 197.169 64.9522 196.781 65.2029 196.367L67.6219 192.582C67.6721 191.215 67.7347 189.849 67.81 188.495C67.8852 187.129 67.9478 185.763 67.998 184.397C67.998 183.181 68.0105 181.965 68.0356 180.724C68.0606 179.483 68.0732 178.268 68.0732 177.052V164.016C67.6721 163.314 67.271 162.6 66.8574 161.898C66.4563 161.196 66.0426 160.482 65.6415 159.78C65.3909 159.379 65.3783 159.003 65.6039 158.639C65.8296 158.288 66.168 158.113 66.6317 158.113H69.853V158.075ZM68.6372 163.151V176.413L68.562 183.758L68.186 192.318L65.6039 196.342L68.938 196.267H75.3806L77.7997 196.116L78.3261 196.718C78.3261 196.668 78.4013 196.605 78.5517 196.53C78.7021 196.455 78.8024 196.417 78.8525 196.417L80.3692 196.342C79.404 194.875 78.7147 193.772 78.2885 193.045C77.8623 192.318 77.574 191.654 77.4111 191.077C77.2607 190.501 77.2106 189.862 77.2607 189.185C77.3108 188.508 77.3359 187.48 77.3359 186.114C77.3359 184.397 77.3234 182.73 77.2983 181.113C77.2732 179.496 77.2607 177.829 77.2607 176.112C77.2607 174.645 77.2732 173.317 77.2983 172.138C77.3234 170.948 77.3359 169.707 77.3359 168.391C77.3359 167.175 77.3484 166.235 77.3735 165.545C77.3986 164.869 77.4988 164.229 77.6743 163.653C77.8498 163.076 78.1256 162.449 78.5141 161.798C78.8901 161.146 79.4667 160.231 80.2187 159.065L79.0781 158.614C78.7773 158.815 78.5642 158.94 78.4389 158.99C78.3136 159.04 78.2133 159.053 78.1381 159.028C78.0629 159.003 77.9877 158.978 77.9125 158.952C77.8373 158.927 77.6994 158.915 77.4988 158.915H75.3806L73.1119 159.065L69.101 158.614H66.0677L68.6372 163.151ZM74.7789 161.484C74.8792 161.484 75.1048 161.409 75.4558 161.259C75.8067 161.108 76.1953 160.933 76.634 160.732C77.0601 160.532 77.4738 160.331 77.8874 160.131C78.2885 159.93 78.6144 159.78 78.8776 159.679C78.7272 160.231 78.5517 160.645 78.3512 160.895C78.1506 161.146 77.9375 161.409 77.7119 161.685C77.4863 161.961 77.2732 162.337 77.0727 162.826C76.8721 163.302 76.7468 164.054 76.6967 165.057V166.122C76.6465 166.523 76.5964 166.949 76.5462 167.375C76.4961 167.802 76.471 168.228 76.471 168.629L76.5462 170.672V172.941L76.471 176.425H76.6967L76.1702 177.177L76.471 183.394L76.6215 185.901L76.5462 188.019V190.213C76.4961 191.278 76.6215 192.093 76.9223 192.669C77.2231 193.246 77.7621 194.123 78.5141 195.289L76.471 195.364L75.4056 195.289H68.6623L72.5228 192.707L73.1244 192.331L73.0492 188.621L73.1244 188.32V185.901L73.1996 162.412L74.1146 161.735L74.7789 161.484ZM75.0798 163.39L75.0046 163.465C75.0046 163.515 74.9795 163.54 74.9293 163.54C74.9293 167.375 74.9168 171.211 74.8917 175.021C74.8667 178.832 74.8541 182.667 74.8541 186.503V188.934L74.7789 189.235L74.8541 192.945C74.8541 193.396 74.6536 193.735 74.2525 193.935L73.6509 194.311H73.7261C73.5757 194.462 73.4503 194.537 73.35 194.537C73.4503 194.487 73.4754 194.474 73.4252 194.499C73.3751 194.524 73.2247 194.612 72.974 194.763H76.0073L77.0727 194.838C76.6716 194.186 76.3833 193.559 76.1953 192.983C76.0198 192.406 75.9571 191.679 76.0073 190.827V188.633L76.0825 186.515L75.9321 184.008C75.8819 182.993 75.8318 181.928 75.7817 180.787C75.7315 179.646 75.6814 178.581 75.6313 177.566L75.9321 176.889C75.9321 176.337 75.9446 175.773 75.9697 175.222C75.9947 174.67 76.0073 174.106 76.0073 173.555V171.286L75.9321 169.243C75.9321 168.942 75.9446 168.604 75.9697 168.215C75.9947 167.839 76.0324 167.526 76.0825 167.263C76.0825 167.162 76.095 167.075 76.1201 166.999C76.1452 166.924 76.1577 166.836 76.1577 166.736V165.671C76.2078 164.505 76.3582 163.578 76.6089 162.863C76.1076 163.114 75.719 163.239 75.4683 163.239L75.0798 163.39Z" fill="white"/>
<path d="M93.2794 159.14C93.8309 158.89 94.3949 158.689 94.9464 158.539C95.4979 158.388 96.087 158.413 96.6886 158.614C96.7388 158.564 96.839 158.539 96.9895 158.539H101.84C102.091 158.539 102.266 158.589 102.367 158.689L102.592 158.84C102.943 158.84 103.282 158.815 103.62 158.764C103.946 158.714 104.284 158.689 104.648 158.689H109.047C109.849 158.739 110.802 158.877 111.893 159.103C112.983 159.328 114.061 159.692 115.151 160.206C116.242 160.707 117.232 161.346 118.147 162.099C119.062 162.851 119.739 163.766 120.19 164.831C120.641 165.997 120.93 166.962 121.055 167.751C121.18 168.529 121.042 169.431 120.641 170.446C120.541 170.647 120.504 170.81 120.529 170.935C120.554 171.06 120.566 171.173 120.566 171.273C120.566 171.524 120.541 171.775 120.491 172.026C120.441 172.276 120.29 172.602 120.04 173.016V172.941C119.589 173.693 119.288 174.181 119.125 174.382V174.307C118.924 174.557 118.749 174.808 118.598 175.059C118.448 175.309 118.323 175.61 118.222 175.974L117.846 176.425C118.398 176.826 118.912 177.29 119.363 177.829C119.814 178.368 120.203 178.857 120.504 179.308C120.754 179.709 120.967 180.098 121.143 180.486C121.318 180.862 121.481 181.201 121.632 181.514C121.732 181.765 121.82 182.015 121.895 182.266C121.97 182.517 122.033 182.742 122.083 182.943H121.707C122.258 183.143 122.534 183.519 122.534 184.083V187.342C122.534 187.844 122.421 188.52 122.196 189.348C121.97 190.175 121.669 191.04 121.281 191.93C120.905 192.82 120.453 193.659 119.914 194.474C119.388 195.289 118.836 195.891 118.285 196.292C116.969 197.257 115.753 197.821 114.65 197.996C113.535 198.172 112.306 198.285 110.94 198.335C110.539 198.335 110.1 198.347 109.649 198.372C109.198 198.397 108.709 198.435 108.208 198.485L107.142 198.41H102.667L100.925 198.034C100.624 198.034 100.223 198.084 99.7094 198.184C99.3083 198.285 98.9197 198.36 98.5688 198.41C98.2178 198.46 97.8668 198.41 97.5034 198.259C97.1524 198.46 96.7764 198.435 96.3628 198.184C96.0619 198.385 95.8113 198.485 95.6107 198.485L94.2445 198.41C93.4423 198.51 92.9033 198.435 92.6526 198.184C92.402 197.934 92.2014 197.533 92.051 196.968C91.9507 196.868 91.9006 196.768 91.9006 196.668C91.9006 196.567 91.8755 196.467 91.8254 196.367C91.7251 196.016 91.7502 195.69 91.9006 195.377C92.051 195.076 92.3268 194.9 92.7278 194.85C93.0788 194.8 93.3295 194.687 93.4799 194.512C93.6303 194.336 93.7807 194.123 93.9311 193.873V193.948C94.0815 193.647 94.2194 193.384 94.3448 193.158C94.4701 192.932 94.6832 192.694 94.984 192.444C94.984 191.591 94.9965 190.789 95.0216 190.062C95.0467 189.335 95.0592 188.533 95.0592 187.681L95.2096 181.464V181.163C95.1093 180.762 95.0467 180.336 95.0216 179.872C94.9965 179.421 94.984 178.907 94.984 178.355C94.984 177.653 94.9965 176.889 95.0216 176.087C95.0467 175.284 95.0843 174.52 95.1344 173.818C95.1845 173.417 95.2096 173.053 95.2096 172.715C95.2096 172.389 95.2096 172.101 95.2096 171.838C95.2096 171.386 95.1971 170.923 95.172 170.471C95.1469 170.02 95.1344 169.556 95.1344 169.105C95.0843 168.704 95.0592 168.24 95.0592 167.701C95.0592 167.162 95.0592 166.673 95.0592 166.222C95.0592 165.57 94.9589 164.981 94.7584 164.48C94.5578 163.979 94.257 163.44 93.8434 162.888C93.4423 162.287 93.0287 161.547 92.6276 160.695L93.2794 159.14ZM93.1164 159.592C93.4674 160.294 93.7932 160.895 94.1066 161.372C94.4074 161.848 94.6706 162.299 94.8963 162.7C95.1219 163.101 95.2974 163.54 95.4227 163.991C95.548 164.442 95.6107 164.981 95.6107 165.583C95.6107 166.548 95.6358 167.476 95.6859 168.391C95.736 169.306 95.7611 170.233 95.7611 171.198C95.7611 171.65 95.7235 172.376 95.6483 173.354C95.5731 174.344 95.523 175.347 95.4979 176.387C95.4728 177.428 95.4979 178.368 95.5731 179.233C95.6483 180.098 95.8113 180.624 96.0619 180.825H95.7736L95.6232 187.041L95.548 192.419C95.1971 192.669 94.9213 192.945 94.7082 193.246C94.5077 193.547 94.3071 193.847 94.1066 194.161C93.9061 194.462 93.6804 194.725 93.4298 194.95C93.1791 195.176 92.8031 195.314 92.2892 195.364C92.4897 195.765 92.615 196.091 92.6652 196.354C92.7153 196.605 93.0412 196.705 93.6554 196.655L95.0216 196.73L95.548 196.129L96.3001 196.655L96.8265 196.129C97.1775 196.63 97.6663 196.78 98.3055 196.58C98.9322 196.379 99.6091 196.279 100.311 196.279L102.204 196.655H106.528L107.593 196.73C108.558 196.63 109.448 196.58 110.288 196.58C111.115 196.58 111.905 196.53 112.632 196.43C113.359 196.329 114.086 196.166 114.788 195.941C115.49 195.715 116.229 195.327 116.981 194.762C117.483 194.412 117.972 193.86 118.423 193.133C118.874 192.406 119.288 191.641 119.639 190.864C119.99 190.087 120.265 189.31 120.466 188.558C120.666 187.806 120.767 187.192 120.767 186.741V183.482C120.516 183.432 120.378 183.206 120.353 182.805C120.328 182.404 120.19 181.89 119.939 181.288C119.789 180.987 119.639 180.674 119.488 180.336C119.338 180.01 119.137 179.646 118.887 179.233C118.486 178.531 117.896 177.816 117.144 177.114C116.392 176.412 115.603 175.999 114.8 175.899L116.768 174.683C116.969 173.981 117.207 173.492 117.483 173.241C117.759 172.991 118.072 172.514 118.435 171.8C118.586 171.499 118.686 171.273 118.736 171.123C118.786 170.973 118.811 170.835 118.811 170.709C118.811 170.584 118.811 170.434 118.811 170.258C118.811 170.083 118.862 169.82 118.962 169.469C119.263 168.604 119.363 167.852 119.263 167.2C119.162 166.548 118.912 165.683 118.511 164.618C118.16 163.603 117.571 162.775 116.768 162.111C115.954 161.459 115.064 160.908 114.073 160.482C113.083 160.055 112.093 159.755 111.078 159.567C110.063 159.391 109.185 159.278 108.421 159.228H104.021L101.677 159.379L101.226 159.078H96.3753V159.379C95.8238 158.978 95.2723 158.852 94.7458 159.003C94.2194 159.14 93.6804 159.341 93.1164 159.592ZM115.553 166.724C115.553 166.473 115.465 166.16 115.289 165.771C115.114 165.395 114.938 164.994 114.763 164.555C114.587 164.129 114.424 163.715 114.274 163.302C114.124 162.901 114.048 162.55 114.048 162.236C114.048 161.835 114.224 161.685 114.575 161.785C114.926 161.885 115.327 162.136 115.791 162.537V162.838C115.791 162.938 115.866 163.202 116.016 163.628C116.167 164.054 116.342 164.48 116.543 164.881C116.693 165.282 116.856 165.646 117.032 165.984C117.207 166.31 117.295 166.761 117.295 167.313C117.345 168.228 117.32 169.005 117.22 169.657C117.119 170.308 116.994 170.998 116.844 171.7V171.624C116.844 171.725 116.831 171.8 116.806 171.85C116.781 171.9 116.768 171.95 116.768 172C116.718 172.051 116.693 172.151 116.693 172.301C116.743 172.251 116.818 172.226 116.919 172.226C117.119 171.675 117.32 170.985 117.52 170.183C117.721 169.381 117.821 168.842 117.821 168.591V168.215C117.821 167.413 117.733 166.611 117.558 165.834C117.383 165.057 117.169 164.38 116.919 163.828C117.32 164.38 117.658 164.994 117.947 165.646C118.222 166.297 118.36 166.962 118.36 167.614V167.99C118.36 168.24 118.297 168.629 118.172 169.168C118.047 169.694 117.921 170.233 117.796 170.76C117.671 171.286 117.483 171.963 117.232 172.765H116.48C116.58 173.016 116.518 173.291 116.292 173.592C116.066 173.893 115.778 174.194 115.427 174.507C115.076 174.808 114.675 175.071 114.249 175.297C113.823 175.523 113.472 175.66 113.221 175.711L117.157 178.368C117.759 178.919 118.335 179.834 118.862 181.1C119.388 182.366 119.739 183.507 119.889 184.51C119.889 184.76 119.889 185.124 119.889 185.613C119.889 186.089 119.864 186.615 119.814 187.167C119.764 187.718 119.689 188.27 119.589 188.796C119.488 189.323 119.363 189.749 119.212 190.05C118.41 191.566 117.633 192.707 116.906 193.459C116.179 194.211 115.415 194.75 114.638 195.051C113.848 195.352 113.008 195.515 112.093 195.54C111.178 195.565 110.15 195.602 108.985 195.652L105.951 195.728H103.908C103.156 195.828 102.379 195.853 101.602 195.803C100.825 195.753 100.023 195.728 99.2205 195.728C99.02 195.728 98.7066 195.753 98.2679 195.803C97.8418 195.853 97.4031 195.878 96.9393 195.878C96.4756 195.878 96.0619 195.84 95.6859 195.765C95.3099 195.69 95.0717 195.552 94.9715 195.352C95.1219 195.301 95.3976 195.189 95.8112 195.013C96.2123 194.838 96.6385 194.662 97.1023 194.487C97.5535 194.311 97.9546 194.136 98.3181 193.96C98.669 193.785 98.8696 193.672 98.9197 193.622C99.1704 193.421 99.3333 193.171 99.4085 192.87C99.4838 192.569 99.5214 192.256 99.5214 191.917C99.5214 191.591 99.4963 191.265 99.4461 190.927C99.396 190.601 99.3709 190.338 99.3709 190.137C99.3709 188.972 99.4085 187.881 99.4838 186.841C99.559 185.801 99.5966 184.635 99.5966 183.319V177.866L101.715 177.942L102.392 177.641C102.141 177.791 101.953 177.992 101.828 178.242C101.702 178.493 101.84 178.744 102.241 178.995C102.141 178.744 102.116 178.493 102.166 178.242C102.216 177.992 102.316 177.791 102.467 177.641C102.567 177.741 102.605 177.804 102.58 177.829C102.555 177.854 102.53 177.866 102.504 177.866C102.479 177.866 102.504 177.866 102.58 177.866C102.655 177.866 102.818 177.866 103.069 177.866H103.908L105.199 177.791L105.951 177.866C106.904 177.866 107.869 177.704 108.834 177.378C109.799 177.052 110.689 176.6 111.529 176.011C112.356 175.435 113.083 174.745 113.685 173.968C114.287 173.191 114.75 172.314 115.051 171.349C115.202 170.547 115.339 169.782 115.465 169.08C115.565 168.366 115.603 167.576 115.553 166.724ZM105.776 163.39L105.249 163.013L103.357 163.69L103.056 166.874V168.992L102.981 174.369C102.68 174.821 102.417 175.159 102.191 175.397C101.966 175.623 101.727 175.811 101.477 175.961C101.226 176.112 100.963 176.237 100.687 176.337C100.411 176.438 100.048 176.588 99.584 176.789V170.872H100.11L99.5088 170.12L99.6592 164.743L99.8848 161.56C100.95 161.81 102.016 161.898 103.106 161.823C104.197 161.748 105.312 161.71 106.478 161.71C107.643 161.71 108.847 161.835 110.113 162.086C111.379 162.337 112.695 162.913 114.048 163.828L113.447 164.894L114.048 164.969C113.347 165.984 112.532 166.36 111.629 166.109C110.714 165.859 109.912 165.194 109.198 164.142L105.776 163.39ZM116.242 185.437C116.192 184.635 116.117 183.883 116.016 183.206C115.916 182.529 115.44 181.727 114.575 180.825C114.073 180.323 113.647 179.935 113.321 179.646C112.996 179.371 112.682 179.145 112.369 178.969C112.068 178.794 111.73 178.618 111.341 178.443C110.965 178.268 110.514 178.004 110.012 177.653L109.712 178.405L111.303 179.696L111.529 180.687L111.003 181.063C110.2 180.662 109.461 180.26 108.809 179.847C108.157 179.446 107.393 179.245 106.54 179.245H105.174C104.773 179.245 104.36 179.32 103.958 179.471C103.557 179.621 103.156 179.822 102.743 180.072V190.764L100.236 192.732L100.161 192.431L99.8598 193.497C101.477 194.462 103.169 194.963 104.936 195.013C106.703 195.063 108.27 194.963 109.636 194.712C111.805 194.211 113.472 193.146 114.638 191.529C115.803 189.912 116.33 188.245 116.229 186.528V185.437H116.242ZM101.151 191.579C101.301 191.479 101.452 191.353 101.602 191.203C101.752 191.052 101.953 190.902 102.204 190.752V180.674C102.204 180.524 102.266 180.348 102.392 180.148C102.517 179.947 102.655 179.797 102.805 179.696L102.881 179.621C102.83 179.621 102.78 179.596 102.73 179.546C102.63 179.646 102.53 179.696 102.429 179.696H101.289V183.946C101.289 184.647 101.276 185.312 101.251 185.913C101.226 186.515 101.188 187.104 101.138 187.656C101.088 188.207 101.063 188.734 101.063 189.21C101.063 189.686 101.063 190.213 101.063 190.764C101.063 190.864 101.076 190.965 101.101 191.065C101.126 191.165 101.138 191.265 101.138 191.366V191.579H101.151ZM102.818 164.217C102.818 164.066 102.893 163.866 103.043 163.615C102.793 163.615 102.542 163.615 102.291 163.615C102.041 163.615 101.79 163.59 101.539 163.54C101.489 163.841 101.464 164.154 101.464 164.493C101.464 164.818 101.439 165.132 101.389 165.445C101.389 166.31 101.364 167.137 101.314 167.952C101.264 168.767 101.239 169.594 101.239 170.459C101.439 170.659 101.564 170.81 101.615 170.91C102.016 171.612 101.915 172.151 101.314 172.502V175.761C101.464 175.66 101.627 175.56 101.803 175.46C101.978 175.36 102.191 175.134 102.442 174.783C102.442 173.931 102.454 173.066 102.479 172.201C102.504 171.336 102.517 170.484 102.517 169.619V167.501L102.818 164.217ZM104.949 175.059C104.447 175.059 104.034 174.858 103.733 174.457C103.432 174.056 103.532 173.655 104.034 173.241L103.582 172.564L103.958 172.414L103.808 170.897L104.034 169.005L103.883 166.887L104.485 163.853L105.237 164.229L105.463 163.853L109.173 165.069C109.323 165.47 109.549 165.921 109.849 166.398C110.15 166.874 110.376 167.325 110.526 167.726C110.677 168.127 110.727 168.554 110.677 168.98C110.627 169.406 110.627 169.832 110.677 170.233C110.677 171.299 110.414 172.113 109.887 172.702C109.361 173.279 108.759 174.056 108.107 175.009C107.142 175.009 106.515 175.021 106.215 175.046C105.926 175.046 105.5 175.059 104.949 175.059ZM105.701 192.105C105.5 192.105 105.137 191.955 104.598 191.654C104.071 191.353 103.72 191.153 103.57 191.052L103.72 185.211L103.57 184.835C103.57 184.083 103.595 183.482 103.645 183.056C103.695 182.629 103.946 182.053 104.397 181.351H103.57L103.795 180.436L106.829 179.91L109.636 181.201L110.702 182.341C110.702 182.391 110.764 182.629 110.89 183.056C111.015 183.482 111.153 183.983 111.303 184.535C111.454 185.086 111.579 185.65 111.679 186.202C111.78 186.753 111.805 187.217 111.755 187.568C111.755 187.718 111.679 188.032 111.529 188.52C111.379 188.997 111.178 189.511 110.927 190.037C110.677 190.564 110.363 191.052 109.975 191.479C109.599 191.905 109.185 192.118 108.721 192.118H105.701V192.105ZM109.336 191.579C109.636 191.579 109.9 191.416 110.125 191.09C110.351 190.764 110.539 190.388 110.689 189.949C110.84 189.523 110.965 189.122 111.065 188.734C111.166 188.358 111.216 188.119 111.216 188.019C111.316 187.618 111.266 187.029 111.065 186.277C110.865 185.525 110.689 184.861 110.539 184.309H110.464C110.363 184.008 110.301 183.833 110.276 183.783C110.251 183.732 110.238 183.682 110.238 183.632C110.138 183.532 110.012 183.394 109.862 183.219C109.712 183.043 109.586 182.905 109.486 182.805C109.085 182.604 108.696 182.404 108.345 182.203C107.994 182.003 107.618 181.827 107.205 181.677C106.954 181.727 106.766 181.777 106.641 181.827C106.515 181.877 106.378 181.928 106.227 181.978C106.227 182.178 106.152 182.379 106.002 182.579C105.651 183.131 105.45 183.569 105.4 183.87C105.35 184.171 105.325 184.597 105.325 185.161V185.462L105.475 185.838L105.325 191.065C105.525 191.165 105.713 191.278 105.889 191.403C106.064 191.529 106.202 191.591 106.302 191.591H109.336V191.579ZM106.691 174.52C106.942 174.52 107.105 174.507 107.18 174.482C107.255 174.457 107.568 174.445 108.132 174.445C108.233 174.294 108.358 174.131 108.508 173.956C108.659 173.78 108.784 173.642 108.884 173.542C109.185 173.141 109.473 172.715 109.749 172.251C110.025 171.8 110.163 171.311 110.163 170.81V169.97C110.163 169.719 110.163 169.481 110.163 169.255C110.163 169.03 110.138 168.867 110.088 168.767C109.987 168.516 109.812 168.14 109.561 167.626C109.311 167.275 109.085 166.924 108.884 166.561C108.483 166.46 108.095 166.335 107.706 166.185C107.33 166.034 106.942 165.884 106.528 165.733C106.428 165.784 106.227 165.859 105.926 165.959C105.876 166.21 105.826 166.46 105.776 166.711C105.726 166.962 105.676 167.212 105.625 167.463C105.625 167.764 105.651 168.14 105.701 168.604C105.751 169.055 105.776 169.443 105.776 169.744L105.55 171.637C105.55 171.888 105.575 172.113 105.625 172.314C105.676 172.514 105.701 172.74 105.701 172.991C105.701 173.091 105.688 173.166 105.663 173.216C105.638 173.266 105.625 173.317 105.625 173.367C105.826 173.818 105.801 174.194 105.55 174.507H106.691V174.52ZM113.133 164.906C112.632 164.655 112.143 164.442 111.692 164.267C111.241 164.091 110.777 163.954 110.326 163.853L110.777 164.154C111.379 165.169 112.043 165.671 112.745 165.671C112.895 165.671 113.021 165.646 113.121 165.596C113.071 165.445 113.046 165.245 113.046 164.994L113.133 164.906ZM117.984 187.029C118.084 188.445 117.821 189.849 117.194 191.24C116.568 192.632 115.59 193.81 114.274 194.762C115.076 194.512 115.841 194.061 116.543 193.396C117.245 192.744 118.009 191.654 118.811 190.137C118.962 189.887 119.075 189.523 119.15 189.034C119.225 188.558 119.288 188.069 119.338 187.593C119.388 187.117 119.401 186.64 119.375 186.189C119.35 185.738 119.338 185.412 119.338 185.199V185.274C119.187 184.409 118.912 183.444 118.511 182.354C118.109 181.263 117.646 180.474 117.144 179.972C116.543 179.571 115.878 179.132 115.176 178.644C114.475 178.167 113.81 177.729 113.209 177.315C113.108 177.315 113.058 177.29 113.058 177.24C112.657 177.541 112.356 177.741 112.143 177.841C112.594 178.092 112.87 178.242 112.983 178.293C113.434 178.543 113.873 178.807 114.312 179.082C114.738 179.358 115.314 179.872 116.016 180.636C116.931 181.652 117.47 182.517 117.646 183.256C117.821 183.983 117.934 184.785 117.984 185.638V187.029V187.029Z" fill="white"/>
<path d="M143.065 158.764C143.416 158.865 143.817 158.764 144.281 158.464C144.381 158.363 144.557 158.313 144.807 158.313C145.058 158.313 145.233 158.363 145.334 158.464L146.324 159.065C146.825 159.266 147.026 159.617 146.925 160.131L146.7 162.324C146.9 162.876 146.976 163.578 146.925 164.405C146.875 165.245 146.8 166.16 146.7 167.175C146.549 168.792 146.474 170.384 146.474 171.95C146.474 172.602 146.487 173.179 146.512 173.655C146.537 174.131 146.6 174.432 146.7 174.532C146.85 174.733 146.938 174.971 146.963 175.247C146.988 175.523 146.926 175.761 146.775 175.961C146.675 176.112 146.6 176.688 146.549 177.704C146.499 178.719 146.474 179.797 146.474 180.962V184.071C146.725 184.986 146.85 185.575 146.85 185.851C146.85 186.126 146.85 186.39 146.85 186.64C146.8 186.891 146.813 187.217 146.888 187.631C146.963 188.032 147.251 188.746 147.753 189.749C148.003 190.3 148.417 190.676 149.006 190.852C149.583 191.027 150.435 191.14 151.551 191.19C151.551 190.025 151.576 188.859 151.626 187.668C151.676 186.477 151.701 185.312 151.701 184.146L151.551 179.671L151.475 179.371L151.626 176.939V165.119C151.576 164.367 151.45 163.816 151.25 163.49C151.049 163.164 150.773 162.8 150.423 162.387C150.172 162.186 149.959 161.986 149.783 161.785C149.608 161.585 149.395 161.309 149.144 160.958C148.994 160.757 148.918 160.532 148.918 160.281C148.918 160.03 148.969 159.805 149.069 159.604L149.595 158.927C149.746 158.677 149.971 158.539 150.272 158.514C150.573 158.489 150.849 158.526 151.112 158.627L151.488 158.852C151.889 158.852 152.265 158.827 152.629 158.777C152.979 158.727 153.33 158.702 153.694 158.702L154.759 158.777H155.825L158.018 158.702H160.212L161.051 158.777C161.202 158.627 161.327 158.526 161.428 158.476C161.678 158.276 161.954 158.213 162.255 158.288C162.556 158.363 162.806 158.526 163.007 158.777C163.257 159.178 163.433 159.504 163.533 159.767C163.634 160.018 163.684 160.444 163.684 161.058V167.2L163.533 186.076C163.533 186.227 163.546 186.314 163.571 186.34C163.596 186.365 163.608 186.402 163.608 186.452C163.659 186.753 163.583 187.079 163.383 187.443C163.383 187.493 163.408 187.518 163.458 187.518C163.558 187.819 163.558 188.144 163.458 188.508C163.458 188.558 163.471 188.608 163.496 188.658C163.521 188.709 163.533 188.759 163.533 188.809V192.368C163.734 192.669 163.984 193.033 164.285 193.471C164.586 193.898 164.887 194.336 165.2 194.763C165.501 195.189 165.902 195.74 166.416 196.392C166.817 196.793 166.917 197.219 166.717 197.683C166.516 198.134 166.14 198.36 165.576 198.36L163.458 198.435H156.188C155.887 198.535 155.574 198.585 155.236 198.585C154.91 198.585 154.621 198.585 154.358 198.585C154.258 198.585 154.195 198.573 154.17 198.548C154.145 198.523 154.082 198.51 153.982 198.51C153.882 198.51 153.794 198.523 153.719 198.548C153.644 198.573 153.556 198.585 153.456 198.585C153.055 198.585 152.629 198.523 152.165 198.397C151.714 198.272 151.438 197.984 151.338 197.533C150.322 197.833 149.395 198.009 148.53 198.059C147.665 198.109 146.662 198.134 145.497 198.134C144.13 198.134 142.965 197.896 142.012 197.42C141.047 196.943 140.22 196.467 139.505 196.016C139.255 195.866 139.054 195.728 138.904 195.602C138.753 195.477 138.653 195.414 138.603 195.414C138.352 195.414 138.114 195.301 137.888 195.076C137.663 194.85 137.525 194.612 137.475 194.361C137.425 194.161 137.337 193.948 137.212 193.722C137.086 193.497 136.973 193.309 136.873 193.158C136.723 192.958 136.56 192.732 136.384 192.481C136.209 192.231 136.071 191.98 135.971 191.729C135.971 191.629 135.946 191.416 135.895 191.09C135.845 190.764 135.783 190.413 135.707 190.025C135.632 189.649 135.57 189.273 135.519 188.884C135.469 188.508 135.444 188.22 135.444 188.007C135.344 187.255 135.281 186.477 135.256 185.7C135.231 184.923 135.168 183.92 135.068 182.705V169.82C135.018 169.268 135.018 168.717 135.068 168.19C135.118 167.664 135.194 167.162 135.294 166.711C135.344 166.21 135.407 165.708 135.482 165.232C135.557 164.756 135.545 164.317 135.444 163.903C134.943 163.853 134.63 163.502 134.529 162.838C134.529 162.638 134.454 162.462 134.304 162.312C134.153 162.161 133.978 162.036 133.777 161.936C133.577 161.785 133.389 161.647 133.213 161.522C133.038 161.397 132.85 161.209 132.649 160.958C132.398 160.557 132.348 160.181 132.499 159.817C132.649 159.466 132.95 159.241 133.414 159.14L136.297 158.689L138.64 158.764H140.759L142.952 158.84H143.065V158.764ZM140.107 159.216H137.989L135.795 159.14L132.912 159.592C133.213 160.043 133.614 160.381 134.128 160.582C134.63 160.782 134.93 161.284 135.043 162.099H135.57C135.87 162.65 136.033 163.214 136.058 163.766C136.083 164.317 136.046 164.894 135.946 165.47C135.845 166.047 135.745 166.648 135.645 167.25C135.544 167.852 135.519 168.466 135.57 169.068V181.953C135.67 183.269 135.733 184.271 135.758 184.986C135.783 185.688 135.845 186.452 135.946 187.255C135.946 187.355 135.971 187.568 136.021 187.894C136.071 188.22 136.121 188.583 136.171 188.997C136.221 189.398 136.284 189.761 136.359 190.1C136.434 190.426 136.472 190.639 136.472 190.739C136.622 191.19 136.898 191.642 137.312 192.068C137.713 192.494 137.939 193.02 137.989 193.622C138.289 193.622 138.64 193.772 139.054 194.073C139.455 194.374 139.931 194.687 140.495 195.026C141.047 195.352 141.686 195.652 142.388 195.941C143.09 196.216 143.93 196.354 144.895 196.354C146.211 196.354 147.364 196.317 148.342 196.242C149.332 196.166 150.448 195.853 151.714 195.289C151.714 196.304 151.839 196.793 152.09 196.768C152.34 196.743 152.766 196.73 153.381 196.73C153.782 196.73 154.208 196.755 154.672 196.806C155.123 196.856 155.499 196.68 155.812 196.279V196.655H162.856L164.975 196.58C164.373 195.728 163.872 195.026 163.496 194.499C163.12 193.973 162.769 193.446 162.43 192.945C162.104 192.444 161.891 192.105 161.791 191.955V188.17H161.415L161.866 187.418L161.49 186.816C161.641 186.565 161.741 186.39 161.791 186.289C161.841 186.189 161.866 186.101 161.866 186.026C161.866 185.951 161.854 185.888 161.829 185.838C161.804 185.788 161.791 185.663 161.791 185.462L161.866 169.544L161.941 166.586V160.444C161.941 160.043 161.904 159.742 161.829 159.529C161.753 159.328 161.616 159.078 161.415 158.777L160.738 159.303L159.598 159.228H157.404L155.211 159.303H154.145L153.08 159.228L150.661 159.379L149.909 158.927L149.382 159.604C149.984 160.206 150.473 160.682 150.824 161.008C151.175 161.334 151.438 161.622 151.613 161.885C151.789 162.136 151.914 162.449 151.989 162.838C152.064 163.214 152.127 163.766 152.177 164.467V176.362L152.027 178.781L152.102 179.082L152.253 183.557L152.102 191.742H151.726C150.059 191.742 148.818 191.616 148.016 191.366C147.214 191.115 146.6 190.564 146.199 189.699C145.747 188.683 145.459 187.944 145.334 187.468C145.208 186.991 145.146 186.603 145.146 186.327C145.146 186.051 145.158 185.788 145.183 185.537C145.208 185.287 145.146 184.911 144.995 184.397C144.895 184.196 144.832 183.632 144.807 182.692C144.782 181.752 144.77 180.737 144.77 179.621C144.77 178.506 144.82 177.478 144.92 176.513C145.02 175.56 145.146 174.946 145.296 174.695C144.945 174.194 144.77 173.266 144.77 171.925C144.77 170.584 144.82 169.193 144.92 167.751C145.02 166.31 145.108 165.006 145.183 163.853C145.258 162.688 145.196 162.036 144.995 161.885L145.221 159.466L144.231 158.865C143.98 159.015 143.667 159.14 143.278 159.241C142.902 159.341 142.589 159.366 142.325 159.316L140.107 159.216ZM139.881 176.35C140.082 176.049 140.22 175.51 140.295 174.72C140.37 173.943 140.408 173.104 140.408 172.214C140.408 171.336 140.395 170.471 140.37 169.632C140.345 168.804 140.333 168.178 140.333 167.777V163.452C140.333 162.7 140.358 162.186 140.408 161.936C140.458 161.685 140.571 161.497 140.746 161.372C140.922 161.246 141.197 161.133 141.573 161.033C141.949 160.933 142.476 160.657 143.128 160.193H144.193L144.043 163.076L143.967 164.217V165.044L143.817 175.573L143.366 176.325C143.616 176.726 143.792 177.415 143.892 178.368C143.993 179.333 144.055 180.348 144.08 181.439C144.105 182.529 144.105 183.582 144.08 184.622C144.055 185.663 144.043 186.427 144.043 186.929C144.043 187.38 144.155 187.906 144.381 188.483C144.607 189.059 144.845 189.636 145.096 190.188C145.446 190.739 145.923 191.19 146.537 191.516C147.139 191.842 147.602 192.268 147.903 192.77H145.02C145.371 193.484 145.935 193.873 146.687 193.948C147.439 194.023 148.242 193.985 149.069 193.835C149.896 193.685 150.648 193.509 151.3 193.309C151.952 193.108 152.365 193.033 152.516 193.083C152.766 193.634 152.553 194.086 151.876 194.412C151.2 194.737 150.372 194.988 149.407 195.164C148.442 195.339 147.54 195.452 146.675 195.502C145.81 195.552 145.359 195.577 145.309 195.577C144.394 195.577 143.604 195.452 142.927 195.201C142.25 194.951 141.674 194.625 141.222 194.211C141.473 194.311 141.749 194.412 142.05 194.512C142.351 194.612 142.727 194.712 143.19 194.813C142.789 194.612 142.413 194.311 142.05 193.898C141.899 193.797 141.699 193.622 141.448 193.371L141.222 193.146C140.771 193.146 140.546 193.271 140.546 193.522C140.145 192.97 139.944 192.469 139.944 192.043C139.944 191.616 140.17 191.403 140.621 191.403C140.821 191.403 141.06 191.504 141.335 191.704C141.611 191.905 141.899 192.143 142.213 192.419C142.513 192.694 142.814 192.945 143.128 193.171C143.428 193.396 143.704 193.534 143.955 193.584L144.181 192.669L142.814 192.143C142.864 192.043 142.789 191.817 142.589 191.466C142.388 191.115 142.163 190.727 141.912 190.288C141.661 189.862 141.423 189.448 141.197 189.034C140.972 188.633 140.834 188.332 140.784 188.119C140.433 186.954 140.232 186.026 140.182 185.312C140.132 184.61 140.107 183.845 140.107 183.043C140.107 182.592 140.107 182.304 140.107 182.178C140.107 182.053 140.132 181.953 140.182 181.877C140.232 181.802 140.307 181.714 140.408 181.614C140.508 181.514 140.658 181.288 140.859 180.937L140.107 180.712L140.182 179.797L140.257 177.754C140.257 177.553 140.27 177.415 140.295 177.34C140.32 177.265 140.333 177.19 140.333 177.114C140.333 177.039 140.307 176.952 140.257 176.851C140.207 176.776 140.082 176.601 139.881 176.35ZM142.15 172.853C142.15 173.605 142.125 174.344 142.075 175.046C142.025 175.748 141.899 176.362 141.699 176.864C141.949 177.265 142.087 177.541 142.112 177.691C142.137 177.841 142.1 178.042 142 178.293V178.368L141.924 180.411V180.561C142.275 180.662 142.501 180.875 142.601 181.201C142.701 181.526 142.626 181.84 142.376 182.153C142.275 182.354 142.163 182.517 142.037 182.642C141.912 182.767 141.874 182.78 141.924 182.68C141.874 182.78 141.849 182.843 141.849 182.868C141.849 182.893 141.849 183.031 141.849 183.281V183.657C141.849 184.409 141.874 185.149 141.924 185.851C141.975 186.553 142.15 187.417 142.451 188.433H142.526C142.576 188.533 142.676 188.746 142.827 189.072C142.977 189.398 143.153 189.686 143.353 189.949C143.504 190.2 143.679 190.513 143.88 190.902C144.08 191.278 144.231 191.591 144.331 191.855C144.431 191.905 144.569 191.967 144.745 192.043C144.92 192.118 145.058 192.18 145.158 192.231L145.233 192.306C145.284 192.306 145.334 192.281 145.384 192.231C145.083 191.93 144.882 191.704 144.782 191.554C144.732 191.504 144.669 191.403 144.594 191.253C144.519 191.103 144.481 191.002 144.481 190.952C144.231 190.401 144.005 189.837 143.804 189.285C143.604 188.734 143.504 188.144 143.504 187.543V185.349C143.504 184.948 143.516 184.522 143.541 184.058C143.566 183.607 143.579 183.118 143.579 182.617C143.579 181.552 143.554 180.536 143.504 179.546C143.454 178.556 143.303 177.917 143.052 177.616C142.952 177.465 142.902 177.252 142.902 176.977C142.902 176.701 142.952 176.488 143.052 176.337L143.278 175.961C143.278 174.194 143.303 172.477 143.353 170.81C143.403 169.143 143.428 167.426 143.428 165.658V164.831L143.504 163.69L143.579 162.249C143.228 162.5 142.952 162.65 142.739 162.7C142.539 162.75 142.363 162.8 142.213 162.851C142.112 162.901 142.062 162.976 142.062 163.076C142.062 163.176 142.062 163.502 142.062 164.066V169.757C142.062 170.208 142.075 170.709 142.1 171.236C142.137 171.762 142.15 172.301 142.15 172.853ZM157.166 163.465C157.116 163.014 157.241 162.637 157.542 162.324C157.843 162.011 158.194 161.773 158.607 161.572C159.008 161.372 159.447 161.209 159.936 161.083C160.412 160.958 160.838 160.845 161.189 160.745L160.813 163.477H161.49L161.265 163.778H161.189V164.229L161.265 165.295V167.413C161.214 167.563 161.227 167.664 161.302 167.714C161.377 167.764 161.44 167.789 161.49 167.789C161.54 167.789 161.54 167.814 161.49 167.864C161.44 167.914 161.265 168.04 160.964 168.24C161.315 168.792 161.465 169.042 161.415 168.992C161.365 168.942 161.315 169.017 161.265 169.218C160.863 168.967 160.663 168.591 160.663 168.077C160.663 167.927 160.688 167.802 160.738 167.701V165.884L160.663 164.894C160.412 164.643 160.287 164.342 160.287 163.979L160.437 162.838C160.036 162.938 159.673 163.089 159.334 163.289C159.008 163.49 158.871 163.715 158.921 163.966V165.032L158.77 166.097C158.871 166.448 158.958 166.824 159.033 167.238C159.109 167.639 159.196 167.99 159.297 168.303L158.996 168.98C158.545 169.18 158.281 169.318 158.206 169.393C158.131 169.469 158.495 169.506 159.309 169.506C159.811 170.108 159.71 170.647 159.008 171.098C159.309 171.549 159.284 172.013 158.933 172.464C158.833 172.514 158.77 172.552 158.745 172.577C158.72 172.602 158.657 172.64 158.557 172.69C158.758 172.64 158.883 172.59 158.933 172.539V172.69C158.933 172.991 159.008 173.241 159.159 173.442C159.259 173.592 159.309 173.805 159.309 174.081C159.309 174.357 159.259 174.57 159.159 174.72L158.933 175.096C158.933 175.247 158.946 175.372 158.971 175.472C158.996 175.573 159.008 175.673 159.008 175.773L158.933 178.042V192.218C159.234 192.669 159.184 193.108 158.783 193.509L157.116 195.327C157.818 195.276 158.57 195.239 159.347 195.214C160.124 195.189 160.876 195.176 161.578 195.176V195.101C161.428 194.9 161.239 194.662 161.014 194.386C160.788 194.111 160.625 193.898 160.525 193.747L160.299 191.015V188.207L160.45 183.356V179.107L160.525 178.042L160.45 174.783L160.525 173.642L160.375 172.201C160.375 172.101 160.4 171.963 160.45 171.787C160.5 171.612 160.575 171.474 160.675 171.374L160.976 171.599H160.901L161.051 173.041L160.976 174.181L161.051 177.44L160.951 178.543V182.792L160.801 187.643V190.376L161.026 192.719L161.941 193.935L163.232 195.903C163.082 195.953 162.844 195.941 162.518 195.866C162.192 195.79 161.929 195.753 161.728 195.753H161.503L153.92 195.903L157.329 192.193C157.279 192.143 157.254 192.093 157.254 192.043L157.178 191.967V191.441V177.49L157.254 175.222L157.178 174.232L157.63 173.555C157.329 173.204 157.178 172.727 157.178 172.113C157.178 171.562 157.178 171.261 157.178 171.198C157.178 171.148 157.329 171.073 157.63 170.973L157.028 170.221L157.78 169.619L157.028 169.168L157.479 167.651L157.028 165.608L157.178 164.467V163.465H157.166ZM160.65 169.519H161.177V169.594L161.252 170.659C161.202 170.709 161.227 170.81 161.327 170.96C161.377 171.06 161.427 171.136 161.478 171.186L161.026 171.562C160.926 171.462 160.838 171.374 160.763 171.299C160.688 171.223 160.675 171.161 160.726 171.111C160.726 170.96 160.713 170.797 160.688 170.622C160.663 170.446 160.65 170.283 160.65 170.133L160.726 169.757V169.606L160.65 169.519Z" fill="white"/>
<path d="M188.614 158.464C188.815 158.313 189.065 158.238 189.366 158.238L190.958 158.539C191.71 158.388 192.299 158.376 192.7 158.501C193.101 158.627 193.477 158.764 193.841 158.915C193.941 158.965 194.054 159.015 194.179 159.065C194.305 159.115 194.505 159.115 194.781 159.065C195.057 159.015 195.433 158.902 195.921 158.727C196.398 158.551 197.05 158.263 197.852 157.862C198.153 157.712 198.466 157.687 198.804 157.787C199.13 157.887 199.343 158.088 199.444 158.388L199.97 159.755L199.594 165.972L199.519 166.122V169.682C199.519 170.183 199.343 170.547 198.992 170.747C198.641 170.948 198.265 170.923 197.852 170.672C197.3 170.321 196.836 169.907 196.485 169.419C196.135 168.942 195.809 168.466 195.495 168.015C195.094 167.413 194.63 166.811 194.129 166.235C193.628 165.658 192.888 165.232 191.936 164.981V165.057C191.071 164.806 190.231 165.019 189.391 165.696C188.551 166.373 188.138 167.175 188.138 168.077V168.905C188.138 169.155 188.213 169.393 188.363 169.619C188.514 169.845 188.689 170.083 188.89 170.333L188.815 170.183C188.915 170.283 188.978 170.371 189.003 170.446C189.028 170.522 189.09 170.609 189.191 170.71C189.592 170.96 189.867 171.148 190.018 171.274C190.168 171.399 190.294 171.512 190.394 171.612C190.494 171.712 190.619 171.838 190.77 171.988C190.92 172.138 191.121 172.339 191.372 172.59V172.514C191.672 172.765 191.885 172.916 192.011 172.966C192.136 173.016 192.274 173.091 192.424 173.191C192.625 173.292 192.876 173.429 193.176 173.605C193.477 173.78 193.678 173.918 193.778 174.019C194.029 174.269 194.455 174.52 195.069 174.771C195.32 174.921 195.57 175.059 195.821 175.184C196.072 175.31 196.348 175.498 196.648 175.748C196.899 175.949 197.1 176.112 197.25 176.237C197.4 176.362 197.526 176.475 197.626 176.576C197.726 176.726 197.839 176.851 197.964 176.952C198.09 177.052 198.102 177.152 198.002 177.252C198.353 177.152 198.666 177.19 198.955 177.365C199.23 177.541 199.393 177.804 199.444 178.155C199.444 178.255 199.506 178.431 199.632 178.681C199.757 178.932 199.92 179.183 200.12 179.433C200.271 179.684 200.409 179.91 200.534 180.11C200.659 180.311 200.772 180.511 200.872 180.712L200.797 180.637C200.948 180.937 201.073 181.176 201.173 181.351C201.274 181.526 201.349 181.664 201.399 181.765C201.499 182.015 201.574 182.191 201.624 182.291C201.675 182.391 201.7 182.542 201.7 182.742C201.7 182.843 201.712 182.993 201.737 183.194C201.762 183.394 201.8 183.62 201.85 183.87V183.795C202.101 185.161 202.126 186.44 201.925 187.618C201.725 188.809 201.474 189.824 201.173 190.689C200.672 192.105 200.033 193.258 199.281 194.136C198.529 195.026 197.726 195.74 196.899 196.292C196.072 196.843 195.22 197.269 194.355 197.545C193.49 197.821 192.738 198.034 192.086 198.184C191.271 198.385 190.87 198.46 190.87 198.41C190.67 198.711 190.394 198.899 190.043 198.974C189.692 199.049 189.391 198.961 189.128 198.711C188.877 198.51 188.602 198.41 188.301 198.41C187.135 198.41 186.283 198.347 185.719 198.222C185.167 198.097 184.578 197.959 183.976 197.808C183.876 197.708 183.375 197.583 182.46 197.432C182.109 197.583 181.745 197.733 181.394 197.884C181.043 198.034 180.692 198.184 180.329 198.335C179.828 198.485 179.364 198.335 178.963 197.884C178.712 197.482 178.549 197.056 178.474 196.593C178.399 196.141 178.361 195.627 178.361 195.076C178.361 194.625 178.374 194.173 178.399 193.747C178.424 193.321 178.461 192.907 178.512 192.494C178.562 192.193 178.587 191.917 178.587 191.667C178.587 191.416 178.587 191.19 178.587 190.99C178.587 190.889 178.587 190.764 178.587 190.614C178.587 190.463 178.562 190.263 178.512 190.012C178.461 189.661 178.424 189.298 178.399 188.909C178.374 188.533 178.361 188.119 178.361 187.656C178.361 186.853 178.461 186.101 178.662 185.425C178.862 184.748 179.238 184.196 179.803 183.795C180.103 183.544 180.417 183.469 180.755 183.57C181.081 183.67 181.319 183.895 181.47 184.246C181.67 184.698 181.808 185.136 181.883 185.537C181.958 185.939 182.046 186.327 182.146 186.678L182.071 186.603C182.171 187.104 182.309 187.606 182.485 188.082C182.66 188.558 182.898 189.009 183.199 189.41C183.751 190.163 184.54 190.764 185.543 191.19C186.558 191.616 187.461 191.83 188.276 191.83C188.677 191.83 188.94 191.817 189.065 191.792C189.191 191.767 189.303 191.704 189.404 191.604C189.755 191.403 190.206 191.203 190.77 191.002L190.996 190.551C190.996 190.3 191.021 190.062 191.071 189.837C191.121 189.611 191.146 189.373 191.146 189.122C191.196 188.571 191.058 188.044 190.732 187.568C190.406 187.092 189.98 186.64 189.441 186.239C188.915 185.838 188.326 185.475 187.699 185.136C187.072 184.81 186.496 184.522 185.994 184.271C185.694 184.121 185.393 183.971 185.079 183.82C184.779 183.67 184.528 183.544 184.327 183.444C183.312 182.742 182.447 182.078 181.708 181.476C180.981 180.875 180.354 180.235 179.853 179.584C179.351 178.932 178.913 178.255 178.562 177.578C178.211 176.901 177.885 176.124 177.571 175.272V175.347C177.321 174.746 177.145 174.081 177.045 173.379C176.945 172.677 176.895 171.963 176.895 171.261C176.895 169.845 177.095 168.466 177.496 167.125C177.897 165.784 178.461 164.618 179.163 163.603C180.179 162.136 181.545 160.87 183.3 159.817C185.167 158.84 186.897 158.363 188.614 158.464ZM188.614 158.764V159.065C187.862 158.915 187.047 158.927 186.182 159.103C185.318 159.278 184.49 159.592 183.676 160.055C182.861 160.519 182.109 161.058 181.407 161.685C180.692 162.312 180.091 162.988 179.589 163.69C179.138 164.342 178.737 165.119 178.411 165.997C178.085 166.887 177.847 167.789 177.697 168.729C177.546 169.669 177.509 170.622 177.584 171.612C177.659 172.602 177.847 173.517 178.148 174.382C178.7 175.999 179.401 177.34 180.229 178.393C181.068 179.458 182.385 180.611 184.202 181.877C184.703 182.178 185.405 182.517 186.283 182.905C187.16 183.281 188.025 183.732 188.865 184.271C189.692 184.798 190.419 185.425 191.021 186.127C191.622 186.828 191.873 187.693 191.773 188.709L191.622 190.225L191.033 191.579C190.582 191.629 190.243 191.704 190.043 191.804C189.842 191.905 189.654 192.005 189.479 192.105C189.303 192.206 189.103 192.293 188.877 192.369C188.652 192.444 188.288 192.481 187.774 192.481C186.809 192.481 185.744 192.231 184.553 191.729C183.362 191.228 182.447 190.513 181.783 189.611C181.231 188.859 180.868 188.019 180.718 187.117C180.567 186.202 180.291 185.249 179.878 184.234C179.527 184.485 179.289 184.886 179.163 185.45C179.038 186.001 178.975 186.615 178.975 187.267C178.975 187.919 179.013 188.558 179.088 189.16C179.163 189.761 179.201 190.225 179.201 190.526C179.201 190.927 179.176 191.428 179.126 192.005C179.076 192.582 179.038 193.196 179.013 193.822C178.988 194.449 178.988 195.038 179.013 195.565C179.038 196.091 179.151 196.517 179.351 196.818L181.77 195.753C182.372 195.903 182.898 196.041 183.325 196.166C183.751 196.292 184.177 196.405 184.616 196.505C185.042 196.605 185.493 196.68 185.982 196.73C186.458 196.781 187.06 196.806 187.762 196.806C188.413 196.806 188.952 196.981 189.354 197.332C189.554 197.031 190.093 196.806 190.983 196.655C191.86 196.505 192.851 196.229 193.941 195.828C195.032 195.427 196.097 194.763 197.162 193.86C198.228 192.945 199.03 191.616 199.581 189.837C199.832 189.085 200.058 188.157 200.258 187.067C200.459 185.976 200.434 184.81 200.183 183.544C200.083 182.993 200.045 182.629 200.07 182.441C200.095 182.266 200.095 182.141 200.07 182.065C200.045 181.99 199.982 181.877 199.882 181.727C199.782 181.577 199.581 181.226 199.281 180.662C199.13 180.261 198.854 179.784 198.441 179.258C198.04 178.731 197.814 178.23 197.764 177.779C197.413 177.879 197.037 177.704 196.623 177.252C196.222 176.801 195.821 176.425 195.408 176.112C194.856 175.661 194.355 175.36 193.929 175.197C193.502 175.046 193.026 174.746 192.525 174.282C192.124 173.981 191.722 173.755 191.309 173.605C190.908 173.454 190.469 173.204 190.018 172.853C189.717 172.602 189.479 172.402 189.303 172.251C189.128 172.101 188.978 171.95 188.852 171.8C188.727 171.65 188.589 171.512 188.439 171.386C188.288 171.261 188.063 171.123 187.762 170.973C187.511 170.572 187.223 170.183 186.897 169.795C186.571 169.419 186.408 168.917 186.408 168.315V167.476C186.408 166.874 186.571 166.272 186.897 165.696C187.223 165.119 187.636 164.618 188.15 164.217C188.652 163.816 189.216 163.527 189.817 163.339C190.419 163.164 191.033 163.151 191.635 163.302C192.55 163.553 193.277 163.929 193.828 164.442C194.38 164.944 194.869 165.495 195.27 166.072C195.671 166.648 196.047 167.225 196.41 167.777C196.761 168.328 197.212 168.767 197.776 169.068V165.508L197.852 165.282L198.228 159.366L197.776 158.226C196.26 158.978 195.182 159.416 194.555 159.517C193.929 159.617 193.44 159.604 193.114 159.479C192.788 159.354 192.475 159.216 192.161 159.065C191.86 158.915 191.296 158.915 190.494 159.065L188.614 158.764ZM197.1 165.207L196.573 166.423L196.423 165.508H195.671C195.771 165.207 195.733 164.931 195.558 164.681C195.382 164.43 195.132 164.192 194.806 163.966C194.48 163.741 194.142 163.54 193.778 163.365C193.427 163.189 193.126 163.051 192.863 162.951C192.161 162.55 191.61 162.374 191.234 162.424C190.858 162.475 190.356 162.475 189.755 162.424C189.303 162.424 188.815 162.612 188.313 162.988C187.812 163.365 187.336 163.816 186.909 164.355C186.483 164.881 186.145 165.458 185.882 166.059C185.631 166.661 185.506 167.2 185.506 167.651C185.506 168.817 185.819 169.845 186.458 170.76C187.085 171.675 188.113 172.602 189.529 173.567C189.679 173.718 190.106 174.019 190.82 174.482C191.522 174.934 192.287 175.422 193.089 175.924C193.891 176.425 194.618 176.889 195.245 177.29C195.871 177.691 196.247 177.917 196.348 177.967L197.338 179.032L197.563 178.957C197.463 179.208 197.588 179.559 197.939 180.022C198.29 180.474 198.566 180.962 198.767 181.464C198.917 181.765 199.08 182.329 199.256 183.131C199.431 183.946 199.544 184.547 199.594 184.948C199.594 185.45 199.544 186.026 199.444 186.653C199.343 187.28 199.218 187.919 199.068 188.546C198.917 189.172 198.754 189.761 198.579 190.288C198.403 190.814 198.24 191.215 198.09 191.466C197.225 192.933 195.871 194.111 193.991 194.988C192.124 195.878 190.055 196.317 187.774 196.317C187.173 196.317 186.558 196.242 185.957 196.091C185.355 195.941 184.779 195.778 184.252 195.602C183.726 195.427 183.262 195.276 182.886 195.151C182.51 195.026 182.247 194.988 182.096 195.038L180.58 194.963L181.256 192.77C182.059 193.321 182.836 193.822 183.563 194.249C184.29 194.675 185.029 195.001 185.756 195.239C186.483 195.464 187.273 195.577 188.1 195.577C188.94 195.577 189.88 195.427 190.945 195.126C191.748 194.925 192.5 194.562 193.176 194.023C193.853 193.497 194.442 192.882 194.919 192.206C195.395 191.529 195.758 190.827 196.022 190.125C196.272 189.423 196.398 188.759 196.398 188.157V186.34C196.398 185.324 196.197 184.472 195.796 183.758C195.395 183.056 194.881 182.266 194.279 181.414C193.928 180.712 193.364 180.11 192.612 179.634C191.86 179.158 191.021 178.719 190.106 178.305C189.191 177.904 188.263 177.465 187.298 177.014C186.333 176.563 185.481 175.986 184.716 175.31C183.964 174.633 183.325 173.793 182.823 172.815C182.322 171.825 182.071 170.609 182.071 169.143C182.071 166.924 182.698 165.107 183.964 163.69C184.164 163.49 184.478 163.239 184.916 162.938C185.343 162.638 185.819 162.349 186.32 162.061C186.822 161.785 187.323 161.547 187.799 161.347C188.276 161.146 188.689 161.046 189.053 161.046H192.161C192.261 161.046 192.462 161.121 192.763 161.271C193.064 161.422 193.39 161.597 193.753 161.798C194.104 161.998 194.442 162.174 194.781 162.324C195.107 162.475 195.37 162.575 195.57 162.625L196.861 160.958L197.238 161.033L196.861 162.7L197.1 165.207ZM184.979 168.24C184.979 167.639 185.167 166.924 185.543 166.122C185.919 165.32 186.408 164.555 187.022 163.853C186.721 164.054 186.433 164.254 186.145 164.455C185.869 164.656 185.631 164.831 185.43 164.981C184.365 166.197 183.839 167.764 183.839 169.682C183.839 170.898 184.039 171.9 184.44 172.715C184.841 173.53 185.355 174.232 185.994 174.833C186.621 175.435 187.336 175.949 188.113 176.35C188.89 176.751 189.692 177.14 190.494 177.49C191.56 177.992 192.575 178.518 193.565 179.045C194.555 179.571 195.295 180.323 195.796 181.276C196.448 182.141 197.012 182.993 197.463 183.858C197.914 184.723 198.14 185.725 198.14 186.891V188.709C198.14 189.874 197.789 191.078 197.075 192.343C197.175 192.243 197.275 192.118 197.375 191.967C197.476 191.817 197.576 191.667 197.676 191.516C197.776 191.266 197.902 190.902 198.052 190.413C198.203 189.937 198.353 189.398 198.503 188.821C198.654 188.245 198.779 187.656 198.879 187.079C198.98 186.503 199.03 185.976 199.03 185.525C198.93 185.174 198.792 184.622 198.616 183.895C198.441 183.168 198.278 182.592 198.127 182.191C198.127 182.241 198.077 182.166 197.977 181.965C197.877 181.765 197.776 181.589 197.676 181.439C197.476 181.238 197.275 180.937 197.075 180.524V180.449L196.084 179.383C195.733 179.183 195.207 178.869 194.53 178.431C193.853 178.004 193.151 177.566 192.449 177.102C191.748 176.651 191.096 176.225 190.519 175.849C189.943 175.472 189.567 175.209 189.416 175.059H189.491C187.875 173.943 186.709 172.878 186.007 171.838C185.33 170.797 184.979 169.594 184.979 168.24Z" fill="white"/>
</g>
<defs>
<filter id="filter0_d_2_190" x="0" y="0" width="212.059" height="219" filterUnits="userSpaceOnUse" color-interpolation-filters="sRGB">
<feFlood flood-opacity="0" result="BackgroundImageFix"/>
<feColorMatrix in="SourceAlpha" type="matrix" values="0 0 0 0 0 0 0 0 0 0 0 0 0 0 0 0 0 0 127 0" result="hardAlpha"/>
<feOffset dy="10"/>
<feGaussianBlur stdDeviation="5"/>
<feComposite in2="hardAlpha" operator="out"/>
<feColorMatrix type="matrix" values="0 0 0 0 0 0 0 0 0 0 0 0 0 0 0 0 0 0 0.25 0"/>
<feBlend mode="normal" in2="BackgroundImageFix" result="effect1_dropShadow_2_190"/>
<feBlend mode="normal" in="SourceGraphic" in2="effect1_dropShadow_2_190" result="shape"/>
</filter>
</defs>
</svg>
